<svg width="196" height="50" viewBox="0 0 196 50" fill="none" xmlns="http://www.w3.org/2000/svg">
<g clip-path="url(#clip0_584_8040)">
<path d="M70.7431 23.5297H69.5792V30.4358H70.7431V23.5297ZM53.831 27.8965C54.0559 26.7411 54.2984 25.5988 54.5364 24.6587C54.7613 25.6032 55.017 26.7411 55.2374 27.8965H53.831ZM55.3697 23.7405C55.33 23.5868 55.2595 23.5253 55.0214 23.5253H54.0956C53.8487 23.5253 53.7781 23.5868 53.7385 23.7405C53.2182 25.5066 52.6363 28.2216 52.2483 30.4358H53.3813C53.4519 29.9481 53.5445 29.4297 53.637 28.9113H55.4226C55.524 29.4297 55.6034 29.9481 55.6783 30.4358H56.8599C56.4719 28.2216 55.8811 25.5198 55.3741 23.7405M74.4289 39.3232H75.5928V32.4171H74.4289V39.3232ZM71.7483 32.4171H70.5888V39.3232H73.6662V38.2864H71.7483V32.4171ZM55.8326 33.4539H57.1773V39.3276H58.3368V33.4539H59.6815V32.4171H55.8282V33.4539H55.8326ZM66.0434 35.4747H65.5143V33.4143H66.0434C66.6341 33.4143 66.8987 33.8229 66.8987 34.4423C66.8987 35.0618 66.6341 35.4791 66.0434 35.4791M68.0494 34.4292C68.0494 33.1991 67.4277 32.4171 66.0831 32.4171H64.3504V39.3232H65.5143V36.4896H66.0346C66.4402 37.355 66.8899 38.6247 67.1059 39.3232H68.2698C68.1067 38.6334 67.5776 37.1398 67.0971 36.2172C67.7275 35.9141 68.0538 35.2727 68.0538 34.4292M77.1094 24.5225H77.6385C78.2293 24.5225 78.4938 24.9267 78.4938 25.5461C78.4938 26.1656 78.2293 26.5829 77.6385 26.5829H77.1094V24.5225ZM77.1094 27.6021H77.6297C78.0353 28.4632 78.485 29.7372 78.701 30.4358H79.8649C79.7018 29.746 79.1727 28.2523 78.6922 27.3254C79.3226 27.0222 79.6489 26.3808 79.6489 25.5373C79.6489 24.3072 79.0272 23.5253 77.6826 23.5253H75.9499V30.4314H77.1138V27.5977L77.1094 27.6021ZM59.9548 24.5621H61.2995V30.4358H62.4634V24.5621H63.8081V23.5253H59.9548V24.5621ZM61.3701 36.3182H63.1953V35.3034H61.3701V33.4539H63.4201V32.4171H60.2105V39.3232H63.5127V38.2864H61.3701V36.3182ZM67.3528 26.4028H65.7303V23.5297H64.5664V30.4358H65.7303V27.4396H67.3528V30.4358H68.5167V23.5297H67.3528V26.4028ZM102.292 27.4308H104.118V26.416H102.292V24.5664H104.342V23.5297H101.133V30.4358H104.435V29.399H102.292V27.4308ZM98.3025 27.6812H99.0872V27.9975C99.0872 28.9201 98.955 29.478 98.3554 29.478C97.7558 29.478 97.6015 28.9508 97.6015 27.4264V26.5302C97.6015 25.0189 97.7734 24.4786 98.3554 24.4786C98.8139 24.4786 98.977 24.8037 99.0387 25.4451H100.119V25.221C100.119 24.2853 99.6692 23.411 98.3642 23.411C97.2135 23.411 96.4375 24.0085 96.4375 26.4995V27.4835C96.4375 29.9437 97.1738 30.5412 98.3421 30.5412C99.5105 30.5412 100.198 29.9745 100.198 27.9931V26.64H98.3025V27.6768V27.6812ZM107.054 26.5873H106.525V24.5269H107.054C107.645 24.5269 107.909 24.9311 107.909 25.5505C107.909 26.17 107.645 26.5873 107.054 26.5873ZM109.06 25.5417C109.06 24.3116 108.438 23.5297 107.094 23.5297H105.361V30.4358H106.52V27.6021H107.041C107.446 28.4632 107.896 29.7372 108.112 30.4358H109.276C109.113 29.746 108.584 28.2523 108.103 27.3254C108.734 27.0222 109.06 26.3808 109.06 25.5373M110.039 29.2496V29.5088C110.039 30.2952 109.801 30.9234 109.739 31.2441H110.224C110.405 30.9937 111 30.3655 111 29.5703V29.2496H110.039ZM94.5726 27.7427L92.8796 23.5253H91.729V30.4314H92.8312V25.9635L94.6255 30.4314H95.6748V23.5253H94.5726V27.7427ZM81.5887 29.2496H80.6276V29.5088C80.6276 30.2952 80.3895 30.9234 80.3278 31.2441H80.8128C80.9936 30.9937 81.5887 30.3655 81.5887 29.5703V29.2496ZM78.3792 37.6098C78.0044 36.0371 77.5944 34.0733 77.3519 32.4171H76.1792C76.5671 34.6532 77.1491 37.3331 77.6561 39.0815C77.709 39.2573 77.7707 39.3276 78.0044 39.3276H78.7054C78.9479 39.3276 79.0008 39.2573 79.0625 39.064C79.5739 37.3375 80.1515 34.6532 80.5395 32.4215H79.4064C79.1507 34.0777 78.7539 36.0371 78.3792 37.6142M82.2677 36.3182H84.0929V35.3034H82.2677V33.4539H84.3178V32.4171H81.1082V39.3232H84.4104V38.2864H82.2677V36.3182ZM87.1262 35.3605L86.7603 35.075C86.3547 34.7586 86.0857 34.4467 86.0857 34.0162C86.0857 33.6208 86.3017 33.3572 86.6589 33.3572C87.1174 33.3572 87.2584 33.7219 87.3025 34.2095H88.4047V33.9767C88.4047 32.9926 87.836 32.3204 86.6721 32.3204C85.614 32.3204 84.9482 32.9618 84.9482 34.0777C84.9482 34.9519 85.3671 35.4703 86.0372 35.9843L86.4031 36.2699C86.9322 36.6873 87.3731 37.0211 87.3731 37.6318C87.3731 38.1107 87.157 38.3742 86.7294 38.3742C86.24 38.3742 85.9975 37.9481 85.9755 37.3594H84.8865V37.6142C84.8865 38.6818 85.4685 39.411 86.6897 39.411C87.8316 39.411 88.5149 38.7521 88.5149 37.5615C88.5149 36.5027 88.0344 36.059 87.1306 35.3561M89.8023 27.4176C89.8023 28.6477 89.7318 29.4693 89.0572 29.4693C88.3827 29.4693 88.3121 28.6477 88.3121 27.4176V26.5434C88.3121 25.3133 88.3827 24.4918 89.0572 24.4918C89.7318 24.4918 89.8023 25.3133 89.8023 26.5434V27.4176ZM89.0572 23.4242C87.8845 23.4242 87.1526 24.0261 87.1526 26.5126V27.4484C87.1526 29.9349 87.8845 30.5368 89.0572 30.5368C90.23 30.5368 90.9618 29.9349 90.9618 27.4484V26.5126C90.9618 24.0261 90.2256 23.4242 89.0572 23.4242ZM60.5368 29.399H58.619V23.5297H57.4551V30.4358H60.5324V29.399H60.5368ZM35.2436 24.2062C33.6697 24.5401 33.1847 23.1738 31.8709 22.3083C30.5571 21.4429 29.349 21.1134 28.1322 19.9053C27.6428 19.4176 27.5194 18.5873 27.03 18.0777C26.3819 17.388 25.9896 17.2035 25.1078 16.8608C23.5647 16.2633 22.2377 15.8196 20.9547 14.7652C20.7387 14.5895 20.2273 14.3567 19.7511 14.2688C19.5483 14.2249 19.4557 14.2556 19.3896 14.3347C19.2 14.5807 19.0237 14.8751 18.8517 15.1562C18.8032 15.2309 18.6445 15.455 18.5167 15.578C18.2698 15.802 17.9612 16.0876 17.7231 16.2194C16.4313 17.0058 14.7339 17.6735 13.9977 18.9915C13.861 19.2331 12.4546 19.8877 12.1283 20.1425C11.6169 20.5642 11.1143 20.9728 10.5897 21.3594C10.0959 21.7284 9.41692 22.2908 8.90551 22.6686C8.63216 22.5675 8.35441 22.4797 8.0987 22.4357C7.49469 22.3127 6.98768 21.8471 6.46745 21.5395C5.80172 21.1178 5.85022 21.0739 5.643 20.9509C5.45783 20.8542 5.36966 20.7839 5.29912 20.7532C4.80533 20.4632 4.77447 20.7532 4.06907 21.1837C3.4827 21.5395 2.80815 22.137 2.30114 22.6115C1.89994 22.9893 1.48993 23.3891 1.07109 23.7976C1.67509 14.7345 9.35079 7.57798 18.7371 7.57798C28.1234 7.57798 35.6448 14.6027 36.3811 23.5297C36.0945 23.9075 35.6889 24.1096 35.2392 24.2062M18.7459 5.50439C8.39408 5.50439 -0.000244141 13.869 -0.000244141 24.1842C-0.000244141 28.4808 1.45906 32.4259 3.90594 35.5846L4.41736 35.1628C3.05505 33.3221 2.04984 31.2177 1.50315 28.9245C1.66187 28.9596 1.85145 29.0124 2.16888 29.1134C3.20935 29.4473 5.17567 30.0887 6.59089 29.4473C7.49029 29.0255 9.0554 28.6829 9.655 28.45C10.2237 28.2172 11.4229 28.7356 10.0077 27.8086H9.99888C9.99888 27.8086 9.9592 27.7867 9.92393 27.7735C9.87544 27.7515 9.83135 27.7427 9.77844 27.7295C9.64177 27.6988 8.5043 27.9185 8.253 27.8833C8.17365 27.8613 8.0987 27.8394 8.02375 27.7954C7.40652 27.4616 10.0386 25.4143 10.1267 24.9047C9.37284 24.9838 8.74679 25.4583 8.07225 25.757C7.27866 26.0997 6.40572 26.1128 5.55483 26.1216C4.58049 26.1216 3.82658 26.8773 2.96687 27.2199C2.52158 27.4088 1.78531 27.5758 1.29153 27.8965C1.25626 27.6856 1.2254 27.4747 1.19454 27.2639C1.21217 26.8948 1.25185 26.4555 1.34003 25.9459C1.53401 24.8344 1.98371 23.9734 2.99332 22.6422C2.99332 22.6422 3.97207 21.4692 4.54522 21.0914C4.76566 20.9333 5.00814 20.7268 5.2418 20.8674C5.4931 21.0211 5.17126 21.9876 5.8414 22.1502C6.2426 22.2381 5.8899 22.9058 6.02657 23.2924C6.17647 23.701 4.36446 25.2869 4.8406 25.4758C5.10513 25.5857 6.30432 24.9794 6.94359 24.7773C7.50351 24.6016 8.10311 24.5884 8.71593 24.0129C9.35079 23.4242 9.97684 23.0947 9.97684 23.0947C10.4927 22.6642 10.9909 22.2205 11.5023 21.7856C11.9961 21.3506 12.4722 20.9113 12.9528 20.4676C13.2526 20.182 14.6149 19.4264 14.7339 19.1716C15.3688 17.8097 17.0177 17.0102 18.2477 16.1447C18.4726 15.9909 18.7195 15.6571 18.8561 15.4682C18.9972 15.2792 19.1427 14.9937 19.2221 14.9014C19.3764 14.7257 19.4161 14.5939 19.5924 14.506C19.6629 14.4709 19.9407 14.4709 20.0597 14.6027C20.4609 15.0244 21.0032 15.3891 21.0253 15.8328C21.0605 16.5181 22.9872 17.1156 23.428 17.6516C23.6088 17.8712 23.7146 18.0821 23.7896 18.293C23.4501 18.1612 23.1194 17.9942 22.8285 17.7834C22.6345 17.6384 22.1804 17.6735 21.9467 17.6384C21.281 17.5154 21.4353 17.8273 21.8056 18.2007C22.1804 18.6005 22.6212 18.9344 22.9651 19.3649C23.3619 19.8526 23.3266 20.2523 23.4325 20.8366C23.5515 21.4561 23.9218 22.0008 24.2304 22.5544C24.5435 23.1079 24.5214 23.6966 24.6934 24.2941C24.8785 24.8915 25.39 25.3924 25.8132 25.8361C26.1747 26.2095 26.9948 27.1321 27.4445 26.9344C27.9206 26.7367 28.5114 27.3122 28.6921 27.1452C28.8729 26.9915 28.216 26.2227 28.4673 25.9942C28.723 25.7614 29.8164 26.126 30.0412 26.8245C30.2969 27.6461 30.2705 27.712 30.2308 28.2963C30.2043 28.6829 30.05 28.9948 29.7899 29.2716C29.4637 29.5923 28.7098 30.137 28.8597 30.6818C29.5518 30.3171 30.3013 30.282 31.0729 30.304C31.8224 30.3259 32.3735 30.014 32.8717 29.4868C33.0921 29.254 33.7314 28.5115 34.0929 28.8893C34.3133 29.109 33.6697 30.0184 34.3751 29.8295C34.8468 29.7065 35.2612 29.3418 35.6889 29.109C35.8035 29.0431 35.9093 28.9772 35.9975 28.9113C35.442 31.2353 34.4147 33.388 33.0172 35.2463L33.5286 35.668C36.0107 32.5006 37.5009 28.5115 37.5009 24.1798C37.5009 13.8646 29.1066 5.5 18.7547 5.5M75.1078 29.399H72.9696V27.4308H74.7948V26.416H72.9696V24.5664H75.0197V23.5297H71.8101V30.4358H75.1122V29.399H75.1078ZM51.6884 29.399H49.5457V27.4308H51.3709V26.416H49.5457V24.5664H51.5958V23.5297H48.3862V30.4358H51.6884V29.399ZM12.0357 35.1848C12.0049 35.3825 11.7271 37.1002 11.4229 38.9981C10.863 38.8751 10.3075 38.6642 9.68586 38.3215C9.06422 37.9789 8.59689 37.623 8.2001 37.2144C9.655 35.9492 10.9644 34.8114 11.1275 34.6752C11.5199 34.3413 11.7095 34.2666 11.8947 34.3633C12.0754 34.4643 12.1107 34.6752 12.0357 35.1848ZM13.1159 32.4039C13.1159 32.4039 13.0718 32.3688 13.0189 32.3468C12.9704 32.3248 12.9307 32.3029 12.9263 32.2897C12.9263 32.3029 12.9263 32.3029 12.9263 32.3029C12.0446 31.8152 11.1716 31.8372 10.1708 32.5708C8.78647 33.5681 2.12479 39.187 2.12479 39.187L4.04702 40.8169C4.04702 40.8169 5.11395 39.8855 6.42336 38.7565C7.06704 39.3188 7.78567 39.8328 8.6013 40.2853C9.40811 40.729 10.2326 41.0717 11.0482 41.3045C10.7704 43.0222 10.5456 44.4149 10.5456 44.4149L12.944 45.1793C12.944 45.1793 14.2137 36.573 14.3371 34.8773C14.4297 33.6472 13.9888 32.8959 13.1115 32.4083M17.4233 45.5H19.901V33.2342H17.4233V45.5ZM27.5414 38.3303C26.9198 38.673 26.3643 38.8751 25.8088 38.9981C25.509 37.1002 25.2401 35.3825 25.2048 35.1848C25.1298 34.6752 25.1695 34.4731 25.3503 34.3633C25.5266 34.2666 25.725 34.3413 26.1086 34.6752C26.2761 34.8202 27.5855 35.9624 29.0316 37.2232C28.6348 37.623 28.1675 37.9876 27.5414 38.3303ZM24.3186 32.2897C24.3186 32.2897 24.2745 32.3248 24.2216 32.3468C24.1687 32.3688 24.1334 32.3907 24.1334 32.3907C23.2561 32.8784 22.8064 33.6296 22.8946 34.8597C23.018 36.5686 24.2745 45.1749 24.2745 45.1749L26.6773 44.4105C26.6773 44.4105 26.4569 43.0178 26.1835 41.3089C26.9992 41.0629 27.8236 40.7202 28.6348 40.2809C29.4416 39.8372 30.1647 39.3144 30.7995 38.7521C32.1089 39.8943 33.1803 40.8344 33.1803 40.8344L35.1025 39.2046C35.1025 39.2046 28.4497 33.5637 27.0697 32.5664C26.0733 31.8372 25.196 31.8108 24.3186 32.2897ZM49.1004 36.3182H50.9256V35.3034H49.1004V33.4539H51.1505V32.4171H47.9409V39.3232H51.2431V38.2864H49.1004V36.3182ZM51.6707 33.4539H53.0154V39.3276H54.1793V33.4539H55.524V32.4171H51.6707V33.4539ZM46.2964 26.4028H44.674V23.5297H43.5145V30.4358H44.674V27.4396H46.2964V30.4358H47.4559V23.5297H46.2964V26.4028ZM45.1942 38.3391H44.674V36.1952H45.1942C45.8864 36.1952 46.2259 36.5818 46.2259 37.2716C46.2259 37.9613 45.9217 38.3391 45.1942 38.3391ZM44.674 33.4012H45.1722C45.7233 33.4012 46.0495 33.6779 46.0495 34.2754C46.0495 34.8729 45.7541 35.198 45.1722 35.198H44.674V33.4012ZM46.3185 35.6153C46.8696 35.3737 47.187 34.8817 47.187 34.1612C47.187 33.0321 46.4331 32.4127 45.3309 32.4127H43.5189V39.3188H45.3133C46.6491 39.3188 47.381 38.651 47.381 37.3199C47.381 36.4984 47.0239 35.8877 46.3229 35.6153M86.531 29.399H84.6132V23.5297H83.4493V30.4358H86.5266V29.399H86.531ZM24.8345 28.7795C24.4024 27.936 22.8769 28.5906 22.101 27.8833C21.8894 27.6944 21.4353 27.2858 21.206 26.5873C20.9856 25.9239 20.6505 25.3924 20.095 24.9618C19.103 24.1842 16.7487 23.0113 16.9119 21.4253C16.9868 20.718 17.8421 20.573 18.1904 20.0502C18.402 19.7515 18.4329 19.3429 18.6842 19.0618C18.9664 18.7411 18.5696 18.7411 18.2918 18.7191C17.701 18.6971 17.2602 19.3429 16.7664 19.6065C15.9596 20.0283 15.2365 20.6258 14.3283 20.8234C14.0594 20.8762 12.7059 21.3023 13.5876 21.522C14.1916 21.6757 14.8706 21.6318 15.3732 22.0667C16.0169 22.6203 16.5415 23.3276 17.1896 23.8811C17.5159 24.1579 17.8377 24.4215 18.1066 24.7685C18.4153 25.1683 18.3756 25.6208 18.6048 26.0338C18.8253 26.4336 19.2573 26.0777 19.5307 26.3018C20.4168 27.031 19.1824 27.3869 18.865 27.7295C18.4505 28.182 18.3668 28.472 17.6085 28.7795C17.2734 28.9157 15.091 29.1793 14.8221 29.3814C14.5532 29.5791 14.6942 29.645 14.7648 29.7241C14.8353 29.8031 15.2101 29.9261 15.3776 29.9349C16.2946 30.0228 19.1163 30.5544 19.6938 29.8383C20.0906 29.3418 20.677 29.2803 21.3251 29.4605C21.7836 29.5835 22.6874 29.4956 23.4765 29.1705C23.9306 28.986 25.1872 28.9728 24.8345 28.7839" fill="white"/>
</g>
<defs>
<clipPath id="clip0_584_8040">
<rect width="196" height="50" fill="white"/>
</clipPath>
</defs>
</svg>
