<svg width="3521" height="1860" viewBox="0 0 3521 1860" fill="none" xmlns="http://www.w3.org/2000/svg">
<path d="M40 42C40 40.8955 40.8954 40 42 40H3479C3480.1 40 3481 40.8954 3481 42V1818C3481 1819.1 3480.1 1820 3479 1820H41.9999C40.8954 1820 40 1819.1 40 1818V42Z" fill="#444444"/>
<path d="M42 40V41H3479V40V39H42V40ZM3481 42H3480V1818H3481H3482V42H3481ZM3479 1820V1819H41.9999V1820V1821H3479V1820ZM40 1818H41V42H40H39V1818H40ZM41.9999 1820V1819C41.4477 1819 41 1818.55 41 1818H40H39C39 1819.66 40.343 1821 41.9999 1821V1820ZM3481 1818H3480C3480 1818.55 3479.55 1819 3479 1819V1820V1821C3480.66 1821 3482 1819.66 3482 1818H3481ZM3479 40V41C3479.55 41 3480 41.4477 3480 42H3481H3482C3482 40.3432 3480.66 39 3479 39V40ZM42 40V39C40.3431 39 39 40.3432 39 42H40H41C41 41.4477 41.4477 41 42 41V40Z" fill="white" fill-opacity="0.1"/>
<rect x="200.336" y="356" width="1416" height="648" rx="31.5" fill="#E9E9E9"/>
<rect x="200.336" y="356" width="1416" height="648" rx="31.5" stroke="#DDDDE3"/>
<path d="M309.727 501.5H302.695V467.562H309.727V501.5ZM329.671 481.25H324.89V493.672C324.89 494.609 325.093 495.266 325.499 495.641C325.905 496.016 326.499 496.219 327.28 496.25C328.28 496.25 329.202 496.203 330.046 496.109V501.594C329.218 501.75 327.983 501.828 326.343 501.828C323.733 501.828 321.679 501.227 320.179 500.023C318.679 498.82 317.937 497.031 317.952 494.656V481.25H314.437V476.047H317.952V469.953H324.89V476.047H329.671V481.25ZM346.24 502.016C343.662 502.016 341.428 501.484 339.537 500.422C337.662 499.359 336.217 497.844 335.201 495.875C334.186 493.891 333.678 491.562 333.678 488.891C333.678 486.281 334.178 483.984 335.178 482C336.193 480 337.631 478.453 339.49 477.359C341.35 476.266 343.506 475.719 345.959 475.719C348.24 475.719 350.279 476.203 352.076 477.172C353.889 478.125 355.311 479.57 356.342 481.508C357.389 483.445 357.912 485.812 357.912 488.609V490.578H340.522C340.522 491.844 340.756 492.945 341.225 493.883C341.709 494.82 342.389 495.547 343.264 496.062C344.154 496.562 345.193 496.812 346.381 496.812C347.522 496.812 348.506 496.586 349.334 496.133C350.162 495.664 350.756 495.031 351.115 494.234H357.725C357.397 495.797 356.725 497.164 355.709 498.336C354.693 499.508 353.373 500.414 351.748 501.055C350.139 501.695 348.303 502.016 346.24 502.016ZM351.35 486.219C351.35 485.203 351.123 484.297 350.67 483.5C350.232 482.688 349.615 482.055 348.818 481.602C348.022 481.148 347.115 480.922 346.1 480.922C345.068 480.922 344.131 481.156 343.287 481.625C342.459 482.094 341.795 482.734 341.295 483.547C340.811 484.359 340.553 485.25 340.522 486.219H351.35ZM363.232 476.047H369.841V480.5H370.122C370.669 479.016 371.56 477.852 372.794 477.008C374.028 476.148 375.497 475.719 377.2 475.719C378.95 475.719 380.435 476.148 381.653 477.008C382.888 477.852 383.716 479.016 384.138 480.5H384.372C384.919 479.031 385.872 477.867 387.232 477.008C388.591 476.148 390.2 475.719 392.06 475.719C393.638 475.719 395.028 476.062 396.232 476.75C397.45 477.422 398.396 478.414 399.068 479.727C399.739 481.023 400.075 482.578 400.075 484.391V501.5H393.138V485.75C393.138 484.344 392.771 483.273 392.036 482.539C391.318 481.805 390.357 481.438 389.153 481.438C387.857 481.438 386.841 481.852 386.107 482.68C385.388 483.492 385.028 484.578 385.028 485.938V501.5H378.278V485.562C378.278 484.312 377.919 483.312 377.2 482.562C376.482 481.812 375.528 481.438 374.341 481.438C373.56 481.438 372.849 481.641 372.208 482.047C371.583 482.438 371.083 482.992 370.708 483.711C370.349 484.43 370.169 485.266 370.169 486.219V501.5H363.232V476.047Z" fill="#27272A"/>
<g clip-path="url(#clip0_3_5)">
<rect x="299.836" y="582.5" width="1217" height="70" rx="20" fill="white"/>
<mask id="path-7-inside-1_3_5" fill="white">
<path d="M299.836 582.5H1516.84V652.5H299.836V582.5Z"/>
</mask>
<path d="M1516.84 652.5V651.5H299.836V652.5V653.5H1516.84V652.5Z" fill="#BCC9D3" mask="url(#path-7-inside-1_3_5)"/>
<rect width="200" height="68" transform="translate(299.836 583.5)" fill="#EEF2F5"/>
<path d="M341.617 617.328H343.227C343.062 615.867 341.883 614.906 339.992 614.906C338.023 614.906 336.711 615.945 336.711 617.453C336.711 618.625 337.508 619.445 339.039 619.781L340.367 620.062C341.266 620.273 341.672 620.625 341.68 621.172C341.672 621.883 340.977 622.336 339.898 622.328C338.891 622.336 338.312 621.953 338.164 621.188H336.461C336.672 622.766 337.875 623.672 339.914 623.672C342.078 623.672 343.375 622.578 343.383 621.047C343.375 619.844 342.617 619.102 341.055 618.75L339.711 618.438C338.773 618.219 338.375 617.859 338.383 617.359C338.375 616.711 339.055 616.219 340.008 616.219C340.93 616.219 341.461 616.656 341.617 617.328ZM345.008 623.5H346.68V615.016H345.008V623.5ZM344.789 612.719C344.797 613.266 345.273 613.711 345.852 613.703C346.422 613.711 346.898 613.266 346.898 612.719C346.898 612.172 346.422 611.734 345.852 611.734C345.273 611.734 344.797 612.172 344.789 612.719ZM348.523 623.5H355.352V622.062H350.789V621.984L355.195 616.219V615.016H348.68V616.453H353.117V616.531L348.523 622.359V623.5ZM360.508 623.672C362.375 623.672 363.68 622.75 364.055 621.375H362.367C362.086 621.891 361.469 622.297 360.523 622.297C359.133 622.297 358.18 621.383 358.133 619.766H364.164V619.172C364.164 616.102 362.328 614.906 360.398 614.906C358.031 614.906 356.469 616.703 356.477 619.312C356.469 621.945 358.008 623.672 360.508 623.672ZM358.141 618.516C358.211 617.32 359.078 616.273 360.414 616.281C361.688 616.273 362.523 617.227 362.523 618.516H358.141Z" fill="black"/>
<rect width="254.25" height="68" transform="translate(499.836 583.5)" fill="#EEF2F5"/>
<path d="M609.602 618.469C609.602 617.117 610.422 616.344 611.57 616.344C612.695 616.344 613.359 617.078 613.367 618.312V623.5H615.023V618.109C615.031 616.008 613.875 614.906 612.133 614.906C610.867 614.906 610.031 615.492 609.633 616.406H609.539V615.016H607.93V623.5H609.602V618.469ZM620.648 623.672C623.039 623.672 624.602 621.922 624.602 619.297C624.602 616.656 623.039 614.906 620.648 614.906C618.242 614.906 616.672 616.656 616.68 619.297C616.672 621.922 618.242 623.672 620.648 623.672ZM618.352 619.297C618.352 617.672 619.094 616.289 620.648 616.281C622.18 616.289 622.914 617.672 622.914 619.297C622.914 620.914 622.18 622.281 620.648 622.281C619.094 622.281 618.352 620.914 618.352 619.297ZM626.242 623.5H627.914V618.328C627.914 617.219 628.773 616.414 629.93 616.422C630.273 616.414 630.664 616.484 630.805 616.516V614.922C630.633 614.906 630.305 614.883 630.102 614.891C629.109 614.883 628.258 615.453 627.945 616.359H627.852V615.016H626.242V623.5ZM632.055 623.5H633.727V618.266C633.727 617.125 634.523 616.344 635.461 616.344C636.375 616.344 637.008 616.945 637.008 617.875V623.5H638.664V618.094C638.664 617.078 639.281 616.344 640.352 616.344C641.227 616.344 641.945 616.82 641.945 617.969V623.5H643.617V617.812C643.609 615.867 642.523 614.906 640.992 614.906C639.766 614.906 638.844 615.492 638.445 616.406H638.352C637.992 615.461 637.203 614.906 636.07 614.906C634.953 614.906 634.117 615.461 633.758 616.406H633.664V615.016H632.055V623.5ZM645.242 621.109C645.234 622.766 646.492 623.688 648.102 623.688C649.508 623.688 650.289 622.977 650.617 622.344H650.68V623.5H652.305V617.859C652.297 615.398 650.328 614.906 648.977 614.906C646.969 614.906 645.656 615.922 645.508 617.328H647.164C647.336 616.703 647.93 616.25 648.914 616.25C650.047 616.25 650.641 616.805 650.633 617.766L650.641 618.445C650.25 618.461 648.977 618.531 648.414 618.562C646.883 618.672 645.234 619.172 645.242 621.109ZM646.867 621.125C646.867 620.289 647.555 619.875 648.648 619.797C649.047 619.773 650.258 619.688 650.641 619.664L650.648 620.438C650.648 621.445 649.836 622.352 648.477 622.359C647.539 622.352 646.867 621.938 646.867 621.125ZM655.992 612.188H654.32V623.5H655.992V612.188Z" fill="black"/>
<rect width="254.25" height="68" transform="translate(754.086 583.5)" fill="#EEF2F5"/>
<path d="M859.758 623.672C861.758 623.672 863.062 622.461 863.242 620.812H861.617C861.406 621.727 860.703 622.258 859.758 622.25C858.359 622.258 857.461 621.109 857.461 619.25C857.461 617.445 858.383 616.305 859.758 616.297C860.812 616.305 861.445 616.969 861.617 617.766H863.242C863.062 616.047 861.664 614.906 859.727 614.906C857.336 614.906 855.781 616.711 855.789 619.297C855.781 621.852 857.281 623.672 859.758 623.672ZM866.492 618.469C866.492 617.117 867.344 616.344 868.523 616.344C869.648 616.344 870.32 617.062 870.32 618.312V623.5H871.992V618.109C871.992 615.984 870.828 614.906 869.086 614.906C867.766 614.906 866.969 615.484 866.57 616.406H866.461V612.188H864.82V623.5H866.492V618.469ZM877.664 623.672C879.531 623.672 880.836 622.75 881.211 621.375H879.523C879.242 621.891 878.625 622.297 877.68 622.297C876.289 622.297 875.336 621.383 875.289 619.766H881.32V619.172C881.32 616.102 879.484 614.906 877.555 614.906C875.188 614.906 873.625 616.703 873.633 619.312C873.625 621.945 875.164 623.672 877.664 623.672ZM875.297 618.516C875.367 617.32 876.234 616.273 877.57 616.281C878.844 616.273 879.68 617.227 879.68 618.516H875.297ZM886.57 623.672C888.57 623.672 889.875 622.461 890.055 620.812H888.43C888.219 621.727 887.516 622.258 886.57 622.25C885.172 622.258 884.273 621.109 884.273 619.25C884.273 617.445 885.195 616.305 886.57 616.297C887.625 616.305 888.258 616.969 888.43 617.766H890.055C889.875 616.047 888.477 614.906 886.539 614.906C884.148 614.906 882.594 616.711 882.602 619.297C882.594 621.852 884.094 623.672 886.57 623.672ZM891.633 623.5H893.305V620.484L894.109 619.688L896.992 623.5H899.039L895.375 618.656L898.805 615.016H896.805L893.445 618.594H893.305V612.188H891.633V623.5ZM903.414 623.672C905.281 623.672 906.586 622.75 906.961 621.375H905.273C904.992 621.891 904.375 622.297 903.43 622.297C902.039 622.297 901.086 621.383 901.039 619.766H907.07V619.172C907.07 616.102 905.234 614.906 903.305 614.906C900.938 614.906 899.375 616.703 899.383 619.312C899.375 621.945 900.914 623.672 903.414 623.672ZM901.047 618.516C901.117 617.32 901.984 616.273 903.32 616.281C904.594 616.273 905.43 617.227 905.43 618.516H901.047ZM911.898 623.672C913.445 623.664 914.055 622.727 914.367 622.172H914.492V623.5H916.117V612.188H914.445V616.391H914.367C914.062 615.859 913.492 614.906 911.914 614.906C909.875 614.906 908.352 616.516 908.352 619.281C908.352 622.016 909.852 623.664 911.898 623.672ZM910.055 619.25C910.047 617.578 910.797 616.32 912.273 616.328C913.711 616.32 914.492 617.484 914.492 619.25C914.492 621.031 913.695 622.242 912.273 622.25C910.812 622.242 910.047 620.953 910.055 619.25Z" fill="black"/>
<rect width="254.25" height="68" transform="translate(1008.34 583.5)" fill="#EEF2F5"/>
<path d="M1113.7 623.672C1115.24 623.664 1115.85 622.727 1116.16 622.172H1116.29V623.5H1117.91V612.188H1116.24V616.391H1116.16C1115.86 615.859 1115.29 614.906 1113.71 614.906C1111.67 614.906 1110.15 616.516 1110.15 619.281C1110.15 622.016 1111.65 623.664 1113.7 623.672ZM1111.85 619.25C1111.84 617.578 1112.59 616.32 1114.07 616.328C1115.51 616.32 1116.29 617.484 1116.29 619.25C1116.29 621.031 1115.49 622.242 1114.07 622.25C1112.61 622.242 1111.84 620.953 1111.85 619.25ZM1120.09 623.5H1121.76V615.016H1120.09V623.5ZM1119.87 612.719C1119.88 613.266 1120.35 613.711 1120.93 613.703C1121.5 613.711 1121.98 613.266 1121.98 612.719C1121.98 612.172 1121.5 611.734 1120.93 611.734C1120.35 611.734 1119.88 612.172 1119.87 612.719ZM1128.55 617.328H1130.16C1130 615.867 1128.82 614.906 1126.93 614.906C1124.96 614.906 1123.65 615.945 1123.65 617.453C1123.65 618.625 1124.45 619.445 1125.98 619.781L1127.3 620.062C1128.2 620.273 1128.61 620.625 1128.62 621.172C1128.61 621.883 1127.91 622.336 1126.84 622.328C1125.83 622.336 1125.25 621.953 1125.1 621.188H1123.4C1123.61 622.766 1124.81 623.672 1126.85 623.672C1129.02 623.672 1130.31 622.578 1130.32 621.047C1130.31 619.844 1129.55 619.102 1127.99 618.75L1126.65 618.438C1125.71 618.219 1125.31 617.859 1125.32 617.359C1125.31 616.711 1125.99 616.219 1126.95 616.219C1127.87 616.219 1128.4 616.656 1128.55 617.328ZM1131.55 621.109C1131.55 622.766 1132.8 623.688 1134.41 623.688C1135.82 623.688 1136.6 622.977 1136.93 622.344H1136.99V623.5H1138.62V617.859C1138.61 615.398 1136.64 614.906 1135.29 614.906C1133.28 614.906 1131.97 615.922 1131.82 617.328H1133.48C1133.65 616.703 1134.24 616.25 1135.23 616.25C1136.36 616.25 1136.95 616.805 1136.95 617.766L1136.95 618.445C1136.56 618.461 1135.29 618.531 1134.73 618.562C1133.2 618.672 1131.55 619.172 1131.55 621.109ZM1133.18 621.125C1133.18 620.289 1133.87 619.875 1134.96 619.797C1135.36 619.773 1136.57 619.688 1136.95 619.664L1136.96 620.438C1136.96 621.445 1136.15 622.352 1134.79 622.359C1133.85 622.352 1133.18 621.938 1133.18 621.125ZM1140.77 623.5H1142.4V622.172H1142.52C1142.84 622.727 1143.44 623.664 1144.98 623.672C1147.03 623.664 1148.53 622.016 1148.54 619.281C1148.53 616.516 1147.02 614.906 1144.96 614.906C1143.39 614.906 1142.83 615.859 1142.52 616.391H1142.43V612.188H1140.77V623.5ZM1142.4 619.25C1142.4 617.484 1143.17 616.32 1144.6 616.328C1146.09 616.32 1146.84 617.578 1146.84 619.25C1146.84 620.953 1146.07 622.242 1144.6 622.25C1143.2 622.242 1142.4 621.031 1142.4 619.25ZM1151.87 612.188H1150.2V623.5H1151.87V612.188ZM1157.55 623.672C1159.42 623.672 1160.73 622.75 1161.1 621.375H1159.41C1159.13 621.891 1158.52 622.297 1157.57 622.297C1156.18 622.297 1155.23 621.383 1155.18 619.766H1161.21V619.172C1161.21 616.102 1159.38 614.906 1157.45 614.906C1155.08 614.906 1153.52 616.703 1153.52 619.312C1153.52 621.945 1155.05 623.672 1157.55 623.672ZM1155.19 618.516C1155.26 617.32 1156.12 616.273 1157.46 616.281C1158.73 616.273 1159.57 617.227 1159.57 618.516H1155.19ZM1166.04 623.672C1167.59 623.664 1168.2 622.727 1168.51 622.172H1168.63V623.5H1170.26V612.188H1168.59V616.391H1168.51C1168.2 615.859 1167.63 614.906 1166.05 614.906C1164.02 614.906 1162.49 616.516 1162.49 619.281C1162.49 622.016 1163.99 623.664 1166.04 623.672ZM1164.2 619.25C1164.19 617.578 1164.94 616.32 1166.41 616.328C1167.85 616.32 1168.63 617.484 1168.63 619.25C1168.63 621.031 1167.84 622.242 1166.41 622.25C1164.95 622.242 1164.19 620.953 1164.2 619.25Z" fill="black"/>
<rect width="254.25" height="68" transform="translate(1262.59 583.5)" fill="#EEF2F5"/>
<path d="M1346.83 612.188H1345.11V623.5H1346.83V612.188ZM1350.66 618.469C1350.66 617.117 1351.48 616.344 1352.62 616.344C1353.75 616.344 1354.41 617.078 1354.42 618.312V623.5H1356.08V618.109C1356.09 616.008 1354.93 614.906 1353.19 614.906C1351.92 614.906 1351.09 615.492 1350.69 616.406H1350.59V615.016H1348.98V623.5H1350.66V618.469ZM1361.28 623.672C1362.83 623.664 1363.44 622.727 1363.75 622.172H1363.88V623.5H1365.5V612.188H1363.83V616.391H1363.75C1363.45 615.859 1362.88 614.906 1361.3 614.906C1359.26 614.906 1357.73 616.516 1357.73 619.281C1357.73 622.016 1359.23 623.664 1361.28 623.672ZM1359.44 619.25C1359.43 617.578 1360.18 616.32 1361.66 616.328C1363.09 616.32 1363.88 617.484 1363.88 619.25C1363.88 621.031 1363.08 622.242 1361.66 622.25C1360.2 622.242 1359.43 620.953 1359.44 619.25ZM1371.33 623.672C1373.2 623.672 1374.5 622.75 1374.88 621.375H1373.19C1372.91 621.891 1372.29 622.297 1371.34 622.297C1369.95 622.297 1369 621.383 1368.95 619.766H1374.98V619.172C1374.98 616.102 1373.15 614.906 1371.22 614.906C1368.85 614.906 1367.29 616.703 1367.3 619.312C1367.29 621.945 1368.83 623.672 1371.33 623.672ZM1368.96 618.516C1369.03 617.32 1369.9 616.273 1371.23 616.281C1372.51 616.273 1373.34 617.227 1373.34 618.516H1368.96ZM1380.61 615.016H1378.88V612.984H1377.22V615.016H1375.97V616.344H1377.22V621.344C1377.2 622.891 1378.38 623.609 1379.69 623.609C1380.15 623.609 1380.51 623.578 1380.73 623.547V622.094C1380.5 622.117 1380.13 622.141 1379.89 622.141C1379.35 622.133 1378.88 621.961 1378.88 621V616.344H1380.61V615.016ZM1385.8 623.672C1387.66 623.672 1388.97 622.75 1389.34 621.375H1387.66C1387.38 621.891 1386.76 622.297 1385.81 622.297C1384.42 622.297 1383.47 621.383 1383.42 619.766H1389.45V619.172C1389.45 616.102 1387.62 614.906 1385.69 614.906C1383.32 614.906 1381.76 616.703 1381.77 619.312C1381.76 621.945 1383.3 623.672 1385.8 623.672ZM1383.43 618.516C1383.5 617.32 1384.37 616.273 1385.7 616.281C1386.98 616.273 1387.81 617.227 1387.81 618.516H1383.43ZM1391.11 623.5H1392.78V618.328C1392.78 617.219 1393.64 616.414 1394.8 616.422C1395.14 616.414 1395.53 616.484 1395.67 616.516V614.922C1395.5 614.906 1395.17 614.883 1394.97 614.891C1393.98 614.883 1393.12 615.453 1392.81 616.359H1392.72V615.016H1391.11V623.5ZM1396.92 623.5H1398.59V618.266C1398.59 617.125 1399.39 616.344 1400.33 616.344C1401.24 616.344 1401.88 616.945 1401.88 617.875V623.5H1403.53V618.094C1403.53 617.078 1404.15 616.344 1405.22 616.344C1406.09 616.344 1406.81 616.82 1406.81 617.969V623.5H1408.48V617.812C1408.48 615.867 1407.39 614.906 1405.86 614.906C1404.63 614.906 1403.71 615.492 1403.31 616.406H1403.22C1402.86 615.461 1402.07 614.906 1400.94 614.906C1399.82 614.906 1398.98 615.461 1398.62 616.406H1398.53V615.016H1396.92V623.5ZM1410.5 623.5H1412.17V615.016H1410.5V623.5ZM1410.28 612.719C1410.29 613.266 1410.77 613.711 1411.34 613.703C1411.91 613.711 1412.39 613.266 1412.39 612.719C1412.39 612.172 1411.91 611.734 1411.34 611.734C1410.77 611.734 1410.29 612.172 1410.28 612.719ZM1415.88 618.469C1415.88 617.117 1416.7 616.344 1417.84 616.344C1418.97 616.344 1419.63 617.078 1419.64 618.312V623.5H1421.3V618.109C1421.3 616.008 1420.15 614.906 1418.41 614.906C1417.14 614.906 1416.3 615.492 1415.91 616.406H1415.81V615.016H1414.2V623.5H1415.88V618.469ZM1422.94 621.109C1422.93 622.766 1424.19 623.688 1425.8 623.688C1427.2 623.688 1427.98 622.977 1428.31 622.344H1428.38V623.5H1430V617.859C1429.99 615.398 1428.02 614.906 1426.67 614.906C1424.66 614.906 1423.35 615.922 1423.2 617.328H1424.86C1425.03 616.703 1425.62 616.25 1426.61 616.25C1427.74 616.25 1428.34 616.805 1428.33 617.766L1428.34 618.445C1427.95 618.461 1426.67 618.531 1426.11 618.562C1424.58 618.672 1422.93 619.172 1422.94 621.109ZM1424.56 621.125C1424.56 620.289 1425.25 619.875 1426.34 619.797C1426.74 619.773 1427.95 619.688 1428.34 619.664L1428.34 620.438C1428.34 621.445 1427.53 622.352 1426.17 622.359C1425.23 622.352 1424.56 621.938 1424.56 621.125ZM1435.98 615.016H1434.25V612.984H1432.59V615.016H1431.34V616.344H1432.59V621.344C1432.58 622.891 1433.76 623.609 1435.06 623.609C1435.52 623.609 1435.88 623.578 1436.11 623.547V622.094C1435.88 622.117 1435.51 622.141 1435.27 622.141C1434.73 622.133 1434.26 621.961 1434.25 621V616.344H1435.98V615.016ZM1441.17 623.672C1443.04 623.672 1444.34 622.75 1444.72 621.375H1443.03C1442.75 621.891 1442.13 622.297 1441.19 622.297C1439.8 622.297 1438.84 621.383 1438.8 619.766H1444.83V619.172C1444.83 616.102 1442.99 614.906 1441.06 614.906C1438.7 614.906 1437.13 616.703 1437.14 619.312C1437.13 621.945 1438.67 623.672 1441.17 623.672ZM1438.8 618.516C1438.88 617.32 1439.74 616.273 1441.08 616.281C1442.35 616.273 1443.19 617.227 1443.19 618.516H1438.8Z" fill="black"/>
</g>
<rect x="300.336" y="583" width="1216" height="69" rx="19.5" stroke="#DEE4E8"/>
<mask id="path-14-inside-2_3_5" fill="white">
<path d="M299.836 652.5H1516.84V829.5H299.836V652.5Z"/>
</mask>
<path d="M1516.84 829.5V828.5H299.836V829.5V830.5H1516.84V829.5Z" fill="#DEE4E8" mask="url(#path-14-inside-2_3_5)"/>
<mask id="path-16-inside-3_3_5" fill="white">
<path d="M299.836 652.5H499.836V828.5H299.836V652.5Z"/>
</mask>
<path d="M299.836 652.5H499.836V828.5H299.836V652.5Z" fill="#F9FAFB"/>
<path d="M499.836 652.5H498.836V828.5H499.836H500.836V652.5H499.836Z" fill="#DEE4E8" mask="url(#path-16-inside-3_3_5)"/>
<path d="M336.62 743.756H340.988V742.076H336.62V743.756Z" fill="#767676"/>
<rect width="1017" height="176" transform="translate(499.836 652.5)" fill="white"/>
<rect x="500.336" y="653" width="1016" height="176" rx="4.5" stroke="#9747FF" stroke-dasharray="10 5"/>
<rect x="870.836" y="731.5" width="20" height="20" rx="4" fill="#013AAD"/>
<path fill-rule="evenodd" clip-rule="evenodd" d="M885.31 738.362C885.57 738.622 885.57 739.044 885.31 739.305L879.977 744.638C879.716 744.899 879.294 744.899 879.034 744.638L876.367 741.971C876.107 741.711 876.107 741.289 876.367 741.029C876.627 740.768 877.05 740.768 877.31 741.029L879.505 743.224L884.367 738.362C884.627 738.102 885.05 738.102 885.31 738.362Z" fill="white" stroke="white" stroke-linecap="round" stroke-linejoin="round"/>
<rect x="1384.84" y="731.5" width="20" height="20" rx="4" fill="#013AAD"/>
<path fill-rule="evenodd" clip-rule="evenodd" d="M1400.17 741.5C1400.17 741.868 1399.87 742.167 1399.5 742.167H1390.17C1389.8 742.167 1389.5 741.868 1389.5 741.5C1389.5 741.132 1389.8 740.833 1390.17 740.833H1399.5C1399.87 740.833 1400.17 741.132 1400.17 741.5Z" fill="white" stroke="white" stroke-linecap="round" stroke-linejoin="round"/>
<rect x="617.836" y="732.5" width="18" height="18" rx="3" stroke="#A8B3BD" stroke-width="2"/>
<g opacity="0.4">
<rect x="1126.84" y="732.5" width="18" height="18" rx="3" stroke="#A8B3BD" stroke-width="2"/>
</g>
<rect x="1721.34" y="356" width="1554" height="1105" rx="31.5" fill="white"/>
<rect x="1721.34" y="356" width="1554" height="1105" rx="31.5" stroke="#DDDDE3"/>
<path d="M1834.99 502.016C1832.45 502.016 1830.23 501.461 1828.34 500.352C1826.46 499.242 1825.02 497.695 1824.02 495.711C1823.02 493.727 1822.52 491.438 1822.52 488.844C1822.52 486.25 1823.02 483.969 1824.02 482C1825.04 480.016 1826.48 478.477 1828.36 477.383C1830.25 476.273 1832.46 475.719 1834.99 475.719C1837.16 475.719 1839.09 476.117 1840.76 476.914C1842.43 477.711 1843.74 478.844 1844.7 480.312C1845.66 481.766 1846.2 483.453 1846.29 485.375H1839.77C1839.55 484.078 1839.04 483.047 1838.23 482.281C1837.41 481.5 1836.37 481.109 1835.09 481.109C1833.98 481.109 1833 481.414 1832.16 482.023C1831.33 482.617 1830.69 483.492 1830.23 484.648C1829.78 485.805 1829.55 487.172 1829.55 488.75C1829.55 490.375 1829.78 491.766 1830.23 492.922C1830.69 494.078 1831.33 494.961 1832.16 495.57C1832.98 496.18 1833.96 496.484 1835.09 496.484C1836.32 496.484 1837.36 496.117 1838.2 495.383C1839.05 494.648 1839.57 493.609 1839.77 492.266H1846.29C1846.18 494.188 1845.66 495.883 1844.72 497.352C1843.78 498.82 1842.48 499.969 1840.8 500.797C1839.15 501.609 1837.21 502.016 1834.99 502.016ZM1858.5 501.5H1851.56V467.562H1858.31V480.5H1858.59C1859.19 478.984 1860.13 477.812 1861.43 476.984C1862.73 476.141 1864.31 475.719 1866.19 475.719C1867.95 475.719 1869.5 476.102 1870.83 476.867C1872.16 477.633 1873.18 478.734 1873.9 480.172C1874.63 481.609 1875 483.312 1875 485.281V501.5H1868.06V486.5C1868.06 484.922 1867.66 483.695 1866.84 482.82C1866.05 481.93 1864.92 481.484 1863.47 481.484C1862.5 481.484 1861.64 481.695 1860.89 482.117C1860.14 482.523 1859.55 483.125 1859.13 483.922C1858.71 484.719 1858.5 485.672 1858.5 486.781V501.5ZM1892.83 502.016C1890.26 502.016 1888.02 501.484 1886.13 500.422C1884.26 499.359 1882.81 497.844 1881.79 495.875C1880.78 493.891 1880.27 491.562 1880.27 488.891C1880.27 486.281 1880.77 483.984 1881.77 482C1882.79 480 1884.22 478.453 1886.08 477.359C1887.94 476.266 1890.1 475.719 1892.55 475.719C1894.83 475.719 1896.87 476.203 1898.67 477.172C1900.48 478.125 1901.9 479.57 1902.94 481.508C1903.98 483.445 1904.51 485.812 1904.51 488.609V490.578H1887.12C1887.12 491.844 1887.35 492.945 1887.82 493.883C1888.3 494.82 1888.98 495.547 1889.86 496.062C1890.75 496.562 1891.79 496.812 1892.97 496.812C1894.12 496.812 1895.1 496.586 1895.93 496.133C1896.76 495.664 1897.35 495.031 1897.71 494.234H1904.32C1903.99 495.797 1903.32 497.164 1902.3 498.336C1901.29 499.508 1899.97 500.414 1898.34 501.055C1896.73 501.695 1894.9 502.016 1892.83 502.016ZM1897.94 486.219C1897.94 485.203 1897.72 484.297 1897.26 483.5C1896.83 482.688 1896.21 482.055 1895.41 481.602C1894.62 481.148 1893.71 480.922 1892.69 480.922C1891.66 480.922 1890.72 481.156 1889.88 481.625C1889.05 482.094 1888.39 482.734 1887.89 483.547C1887.4 484.359 1887.15 485.25 1887.12 486.219H1897.94ZM1921.26 502.016C1918.72 502.016 1916.5 501.461 1914.61 500.352C1912.73 499.242 1911.29 497.695 1910.29 495.711C1909.29 493.727 1908.79 491.438 1908.79 488.844C1908.79 486.25 1909.29 483.969 1910.29 482C1911.31 480.016 1912.75 478.477 1914.63 477.383C1916.52 476.273 1918.73 475.719 1921.26 475.719C1923.43 475.719 1925.36 476.117 1927.03 476.914C1928.7 477.711 1930.01 478.844 1930.97 480.312C1931.93 481.766 1932.47 483.453 1932.56 485.375H1926.04C1925.83 484.078 1925.31 483.047 1924.5 482.281C1923.68 481.5 1922.64 481.109 1921.36 481.109C1920.25 481.109 1919.27 481.414 1918.43 482.023C1917.6 482.617 1916.96 483.492 1916.5 484.648C1916.05 485.805 1915.83 487.172 1915.83 488.75C1915.83 490.375 1916.05 491.766 1916.5 492.922C1916.96 494.078 1917.6 494.961 1918.43 495.57C1919.25 496.18 1920.23 496.484 1921.36 496.484C1922.59 496.484 1923.63 496.117 1924.47 495.383C1925.32 494.648 1925.84 493.609 1926.04 492.266H1932.56C1932.45 494.188 1931.93 495.883 1930.99 497.352C1930.05 498.82 1928.75 499.969 1927.08 500.797C1925.42 501.609 1923.48 502.016 1921.26 502.016ZM1937.83 467.562H1944.77V485.797H1945.14L1953.39 476.047H1961.36L1951.87 487.062L1961.88 501.5H1953.72L1946.71 491.141L1944.77 493.344V501.5H1937.83V467.562ZM1965.7 467.562H1972.64V480.312H1972.82C1973.43 479.016 1974.32 477.93 1975.47 477.055C1976.63 476.164 1978.17 475.719 1980.09 475.719C1982.01 475.719 1983.75 476.219 1985.32 477.219C1986.89 478.203 1988.14 479.68 1989.07 481.648C1989.99 483.602 1990.45 485.984 1990.45 488.797C1990.45 491.547 1990 493.914 1989.09 495.898C1988.18 497.867 1986.95 499.367 1985.39 500.398C1983.82 501.414 1982.06 501.922 1980.09 501.922C1978.2 501.922 1976.66 501.492 1975.47 500.633C1974.3 499.758 1973.42 498.688 1972.82 497.422H1972.54V501.5H1965.7V467.562ZM1972.5 488.75C1972.5 490.281 1972.71 491.625 1973.13 492.781C1973.55 493.922 1974.17 494.812 1974.98 495.453C1975.79 496.078 1976.76 496.391 1977.89 496.391C1979.62 496.391 1980.96 495.695 1981.89 494.305C1982.85 492.914 1983.32 491.062 1983.32 488.75C1983.32 486.469 1982.85 484.648 1981.89 483.289C1980.96 481.93 1979.62 481.25 1977.89 481.25C1976.17 481.25 1974.84 481.922 1973.9 483.266C1972.96 484.594 1972.5 486.422 1972.5 488.75ZM2007.3 502.016C2004.77 502.016 2002.56 501.469 2000.69 500.375C1998.81 499.281 1997.37 497.742 1996.35 495.758C1995.34 493.758 1994.83 491.453 1994.83 488.844C1994.83 486.234 1995.33 483.938 1996.33 481.953C1997.35 479.969 1998.79 478.438 2000.67 477.359C2002.56 476.266 2004.77 475.719 2007.3 475.719C2009.83 475.719 2012.04 476.266 2013.93 477.359C2015.82 478.438 2017.28 479.969 2018.29 481.953C2019.31 483.938 2019.81 486.234 2019.81 488.844C2019.81 491.453 2019.31 493.758 2018.29 495.758C2017.28 497.742 2015.82 499.281 2013.93 500.375C2012.04 501.469 2009.83 502.016 2007.3 502.016ZM2007.35 496.625C2008.5 496.625 2009.49 496.297 2010.3 495.641C2011.11 494.969 2011.72 494.047 2012.13 492.875C2012.53 491.703 2012.74 490.359 2012.74 488.844C2012.74 487.328 2012.53 485.984 2012.13 484.812C2011.72 483.625 2011.11 482.695 2010.3 482.023C2009.49 481.352 2008.5 481.016 2007.35 481.016C2006.17 481.016 2005.17 481.352 2004.35 482.023C2003.53 482.695 2002.92 483.625 2002.49 484.812C2002.07 485.984 2001.86 487.328 2001.86 488.844C2001.86 490.344 2002.07 491.688 2002.49 492.875C2002.92 494.047 2003.53 494.969 2004.35 495.641C2005.17 496.297 2006.17 496.625 2007.35 496.625ZM2034.7 485L2039.52 476.047H2046.7L2039.24 488.75L2046.88 501.5H2039.76L2034.7 492.641L2029.73 501.5H2022.51L2030.1 488.75L2022.79 476.047H2029.96L2034.7 485Z" fill="#27272A"/>
<g clip-path="url(#clip1_3_5)">
<rect x="1820.84" y="582.5" width="1353" height="780" rx="20" fill="white"/>
<mask id="path-30-inside-4_3_5" fill="white">
<path d="M1820.84 582.5H3173.84V652.5H1820.84V582.5Z"/>
</mask>
<path d="M3173.84 652.5V651.5H1820.84V652.5V653.5H3173.84V652.5Z" fill="#BCC9D3" mask="url(#path-30-inside-4_3_5)"/>
<rect width="200" height="68" transform="translate(1820.84 583.5)" fill="#EEF2F5"/>
<path d="M1862.62 617.328H1864.23C1864.06 615.867 1862.88 614.906 1860.99 614.906C1859.02 614.906 1857.71 615.945 1857.71 617.453C1857.71 618.625 1858.51 619.445 1860.04 619.781L1861.37 620.062C1862.27 620.273 1862.67 620.625 1862.68 621.172C1862.67 621.883 1861.98 622.336 1860.9 622.328C1859.89 622.336 1859.31 621.953 1859.16 621.188H1857.46C1857.67 622.766 1858.88 623.672 1860.91 623.672C1863.08 623.672 1864.38 622.578 1864.38 621.047C1864.38 619.844 1863.62 619.102 1862.05 618.75L1860.71 618.438C1859.77 618.219 1859.38 617.859 1859.38 617.359C1859.38 616.711 1860.05 616.219 1861.01 616.219C1861.93 616.219 1862.46 616.656 1862.62 617.328ZM1866.01 623.5H1867.68V615.016H1866.01V623.5ZM1865.79 612.719C1865.8 613.266 1866.27 613.711 1866.85 613.703C1867.42 613.711 1867.9 613.266 1867.9 612.719C1867.9 612.172 1867.42 611.734 1866.85 611.734C1866.27 611.734 1865.8 612.172 1865.79 612.719ZM1869.52 623.5H1876.35V622.062H1871.79V621.984L1876.2 616.219V615.016H1869.68V616.453H1874.12V616.531L1869.52 622.359V623.5ZM1881.51 623.672C1883.38 623.672 1884.68 622.75 1885.05 621.375H1883.37C1883.09 621.891 1882.47 622.297 1881.52 622.297C1880.13 622.297 1879.18 621.383 1879.13 619.766H1885.16V619.172C1885.16 616.102 1883.33 614.906 1881.4 614.906C1879.03 614.906 1877.47 616.703 1877.48 619.312C1877.47 621.945 1879.01 623.672 1881.51 623.672ZM1879.14 618.516C1879.21 617.32 1880.08 616.273 1881.41 616.281C1882.69 616.273 1883.52 617.227 1883.52 618.516H1879.14Z" fill="black"/>
<rect width="200" height="68" transform="translate(2020.84 583.5)" fill="#EEF2F5"/>
<path d="M2059.68 623.5H2061.4L2063.1 617.391H2063.23L2064.95 623.5H2066.65L2069.13 615.016H2067.41L2065.77 621.203H2065.68L2064.04 615.016H2062.32L2060.66 621.234H2060.57L2058.91 615.016H2057.2L2059.68 623.5ZM2073.9 623.672C2075.77 623.672 2077.07 622.75 2077.45 621.375H2075.76C2075.48 621.891 2074.86 622.297 2073.91 622.297C2072.52 622.297 2071.57 621.383 2071.52 619.766H2077.55V619.172C2077.55 616.102 2075.72 614.906 2073.79 614.906C2071.42 614.906 2069.86 616.703 2069.87 619.312C2069.86 621.945 2071.4 623.672 2073.9 623.672ZM2071.53 618.516C2071.6 617.32 2072.47 616.273 2073.8 616.281C2075.08 616.273 2075.91 617.227 2075.91 618.516H2071.53ZM2079.21 623.5H2080.88V615.016H2079.21V623.5ZM2078.99 612.719C2079 613.266 2079.48 613.711 2080.05 613.703C2080.62 613.711 2081.1 613.266 2081.1 612.719C2081.1 612.172 2080.62 611.734 2080.05 611.734C2079.48 611.734 2079 612.172 2078.99 612.719ZM2086.48 626.859C2088.66 626.859 2090.31 625.867 2090.3 623.688V615.016H2088.68V616.391H2088.57C2088.26 615.859 2087.68 614.906 2086.1 614.906C2084.06 614.906 2082.54 616.461 2082.54 619.172C2082.54 621.883 2084.09 623.375 2086.09 623.375C2087.65 623.375 2088.26 622.5 2088.55 621.953H2088.66V623.625C2088.66 624.945 2087.82 625.523 2086.49 625.516C2085.39 625.523 2084.64 625.133 2084.48 624.328H2082.77C2082.92 625.914 2084.34 626.859 2086.48 626.859ZM2084.24 619.203C2084.23 617.578 2084.98 616.32 2086.46 616.328C2087.9 616.32 2088.68 617.484 2088.68 619.203C2088.68 620.953 2087.88 621.992 2086.46 622C2085 621.992 2084.23 620.867 2084.24 619.203ZM2094.01 618.469C2094.01 617.117 2094.86 616.344 2096.04 616.344C2097.16 616.344 2097.84 617.062 2097.84 618.312V623.5H2099.51V618.109C2099.51 615.984 2098.34 614.906 2096.6 614.906C2095.28 614.906 2094.48 615.484 2094.09 616.406H2093.98V612.188H2092.34V623.5H2094.01V618.469ZM2105.49 615.016H2103.76V612.984H2102.1V615.016H2100.85V616.344H2102.1V621.344C2102.09 622.891 2103.27 623.609 2104.57 623.609C2105.03 623.609 2105.39 623.578 2105.62 623.547V622.094C2105.38 622.117 2105.02 622.141 2104.77 622.141C2104.23 622.133 2103.77 621.961 2103.76 621V616.344H2105.49V615.016Z" fill="black"/>
<rect width="317.667" height="68" transform="translate(2220.84 583.5)" fill="#EEF2F5"/>
<path d="M2362.31 618.469C2362.31 617.117 2363.13 616.344 2364.28 616.344C2365.4 616.344 2366.07 617.078 2366.08 618.312V623.5H2367.73V618.109C2367.74 616.008 2366.58 614.906 2364.84 614.906C2363.58 614.906 2362.74 615.492 2362.34 616.406H2362.25V615.016H2360.64V623.5H2362.31V618.469ZM2373.36 623.672C2375.75 623.672 2377.31 621.922 2377.31 619.297C2377.31 616.656 2375.75 614.906 2373.36 614.906C2370.95 614.906 2369.38 616.656 2369.39 619.297C2369.38 621.922 2370.95 623.672 2373.36 623.672ZM2371.06 619.297C2371.06 617.672 2371.8 616.289 2373.36 616.281C2374.89 616.289 2375.62 617.672 2375.62 619.297C2375.62 620.914 2374.89 622.281 2373.36 622.281C2371.8 622.281 2371.06 620.914 2371.06 619.297ZM2378.95 623.5H2380.62V618.328C2380.62 617.219 2381.48 616.414 2382.64 616.422C2382.98 616.414 2383.37 616.484 2383.51 616.516V614.922C2383.34 614.906 2383.01 614.883 2382.81 614.891C2381.82 614.883 2380.97 615.453 2380.65 616.359H2380.56V615.016H2378.95V623.5ZM2384.76 623.5H2386.43V618.266C2386.43 617.125 2387.23 616.344 2388.17 616.344C2389.08 616.344 2389.72 616.945 2389.72 617.875V623.5H2391.37V618.094C2391.37 617.078 2391.99 616.344 2393.06 616.344C2393.93 616.344 2394.65 616.82 2394.65 617.969V623.5H2396.33V617.812C2396.32 615.867 2395.23 614.906 2393.7 614.906C2392.47 614.906 2391.55 615.492 2391.15 616.406H2391.06C2390.7 615.461 2389.91 614.906 2388.78 614.906C2387.66 614.906 2386.83 615.461 2386.47 616.406H2386.37V615.016H2384.76V623.5ZM2397.95 621.109C2397.94 622.766 2399.2 623.688 2400.81 623.688C2402.22 623.688 2403 622.977 2403.33 622.344H2403.39V623.5H2405.01V617.859C2405.01 615.398 2403.04 614.906 2401.68 614.906C2399.68 614.906 2398.36 615.922 2398.22 617.328H2399.87C2400.04 616.703 2400.64 616.25 2401.62 616.25C2402.76 616.25 2403.35 616.805 2403.34 617.766L2403.35 618.445C2402.96 618.461 2401.68 618.531 2401.12 618.562C2399.59 618.672 2397.94 619.172 2397.95 621.109ZM2399.58 621.125C2399.58 620.289 2400.26 619.875 2401.36 619.797C2401.76 619.773 2402.97 619.688 2403.35 619.664L2403.36 620.438C2403.36 621.445 2402.54 622.352 2401.18 622.359C2400.25 622.352 2399.58 621.938 2399.58 621.125ZM2408.7 612.188H2407.03V623.5H2408.7V612.188Z" fill="black"/>
<rect width="317.667" height="68" transform="translate(2538.5 583.5)" fill="#EEF2F5"/>
<path d="M2675.88 623.672C2677.88 623.672 2679.19 622.461 2679.37 620.812H2677.74C2677.53 621.727 2676.83 622.258 2675.88 622.25C2674.49 622.258 2673.59 621.109 2673.59 619.25C2673.59 617.445 2674.51 616.305 2675.88 616.297C2676.94 616.305 2677.57 616.969 2677.74 617.766H2679.37C2679.19 616.047 2677.79 614.906 2675.85 614.906C2673.46 614.906 2671.91 616.711 2671.92 619.297C2671.91 621.852 2673.41 623.672 2675.88 623.672ZM2682.62 618.469C2682.62 617.117 2683.47 616.344 2684.65 616.344C2685.77 616.344 2686.45 617.062 2686.45 618.312V623.5H2688.12V618.109C2688.12 615.984 2686.95 614.906 2685.21 614.906C2683.89 614.906 2683.1 615.484 2682.7 616.406H2682.59V612.188H2680.95V623.5H2682.62V618.469ZM2693.79 623.672C2695.66 623.672 2696.96 622.75 2697.34 621.375H2695.65C2695.37 621.891 2694.75 622.297 2693.81 622.297C2692.42 622.297 2691.46 621.383 2691.42 619.766H2697.45V619.172C2697.45 616.102 2695.61 614.906 2693.68 614.906C2691.31 614.906 2689.75 616.703 2689.76 619.312C2689.75 621.945 2691.29 623.672 2693.79 623.672ZM2691.42 618.516C2691.49 617.32 2692.36 616.273 2693.7 616.281C2694.97 616.273 2695.81 617.227 2695.81 618.516H2691.42ZM2702.7 623.672C2704.7 623.672 2706 622.461 2706.18 620.812H2704.56C2704.35 621.727 2703.64 622.258 2702.7 622.25C2701.3 622.258 2700.4 621.109 2700.4 619.25C2700.4 617.445 2701.32 616.305 2702.7 616.297C2703.75 616.305 2704.38 616.969 2704.56 617.766H2706.18C2706 616.047 2704.6 614.906 2702.67 614.906C2700.27 614.906 2698.72 616.711 2698.73 619.297C2698.72 621.852 2700.22 623.672 2702.7 623.672ZM2707.76 623.5H2709.43V620.484L2710.24 619.688L2713.12 623.5H2715.17L2711.5 618.656L2714.93 615.016H2712.93L2709.57 618.594H2709.43V612.188H2707.76V623.5ZM2719.54 623.672C2721.41 623.672 2722.71 622.75 2723.09 621.375H2721.4C2721.12 621.891 2720.5 622.297 2719.56 622.297C2718.17 622.297 2717.21 621.383 2717.17 619.766H2723.2V619.172C2723.2 616.102 2721.36 614.906 2719.43 614.906C2717.06 614.906 2715.5 616.703 2715.51 619.312C2715.5 621.945 2717.04 623.672 2719.54 623.672ZM2717.17 618.516C2717.24 617.32 2718.11 616.273 2719.45 616.281C2720.72 616.273 2721.56 617.227 2721.56 618.516H2717.17ZM2728.02 623.672C2729.57 623.664 2730.18 622.727 2730.49 622.172H2730.62V623.5H2732.24V612.188H2730.57V616.391H2730.49C2730.19 615.859 2729.62 614.906 2728.04 614.906C2726 614.906 2724.48 616.516 2724.48 619.281C2724.48 622.016 2725.98 623.664 2728.02 623.672ZM2726.18 619.25C2726.17 617.578 2726.92 616.32 2728.4 616.328C2729.84 616.32 2730.62 617.484 2730.62 619.25C2730.62 621.031 2729.82 622.242 2728.4 622.25C2726.94 622.242 2726.17 620.953 2726.18 619.25Z" fill="black"/>
<rect width="317.667" height="68" transform="translate(2856.17 583.5)" fill="#EEF2F5"/>
<path d="M2995.19 623.672C2996.74 623.664 2997.35 622.727 2997.66 622.172H2997.78V623.5H2999.41V612.188H2997.74V616.391H2997.66C2997.35 615.859 2996.78 614.906 2995.2 614.906C2993.17 614.906 2991.64 616.516 2991.64 619.281C2991.64 622.016 2993.14 623.664 2995.19 623.672ZM2993.35 619.25C2993.34 617.578 2994.09 616.32 2995.56 616.328C2997 616.32 2997.78 617.484 2997.78 619.25C2997.78 621.031 2996.99 622.242 2995.56 622.25C2994.1 622.242 2993.34 620.953 2993.35 619.25ZM3001.58 623.5H3003.25V615.016H3001.58V623.5ZM3001.36 612.719C3001.37 613.266 3001.85 613.711 3002.42 613.703C3002.99 613.711 3003.47 613.266 3003.47 612.719C3003.47 612.172 3002.99 611.734 3002.42 611.734C3001.85 611.734 3001.37 612.172 3001.36 612.719ZM3010.05 617.328H3011.66C3011.49 615.867 3010.31 614.906 3008.42 614.906C3006.45 614.906 3005.14 615.945 3005.14 617.453C3005.14 618.625 3005.94 619.445 3007.47 619.781L3008.8 620.062C3009.7 620.273 3010.1 620.625 3010.11 621.172C3010.1 621.883 3009.41 622.336 3008.33 622.328C3007.32 622.336 3006.74 621.953 3006.6 621.188H3004.89C3005.1 622.766 3006.31 623.672 3008.35 623.672C3010.51 623.672 3011.81 622.578 3011.81 621.047C3011.81 619.844 3011.05 619.102 3009.49 618.75L3008.14 618.438C3007.2 618.219 3006.81 617.859 3006.81 617.359C3006.81 616.711 3007.49 616.219 3008.44 616.219C3009.36 616.219 3009.89 616.656 3010.05 617.328ZM3013.05 621.109C3013.04 622.766 3014.3 623.688 3015.91 623.688C3017.31 623.688 3018.1 622.977 3018.42 622.344H3018.49V623.5H3020.11V617.859C3020.1 615.398 3018.13 614.906 3016.78 614.906C3014.77 614.906 3013.46 615.922 3013.31 617.328H3014.97C3015.14 616.703 3015.74 616.25 3016.72 616.25C3017.85 616.25 3018.45 616.805 3018.44 617.766L3018.45 618.445C3018.06 618.461 3016.78 618.531 3016.22 618.562C3014.69 618.672 3013.04 619.172 3013.05 621.109ZM3014.67 621.125C3014.67 620.289 3015.36 619.875 3016.45 619.797C3016.85 619.773 3018.06 619.688 3018.45 619.664L3018.45 620.438C3018.45 621.445 3017.64 622.352 3016.28 622.359C3015.35 622.352 3014.67 621.938 3014.67 621.125ZM3022.27 623.5H3023.89V622.172H3024.02C3024.33 622.727 3024.93 623.664 3026.47 623.672C3028.52 623.664 3030.02 622.016 3030.03 619.281C3030.02 616.516 3028.51 614.906 3026.45 614.906C3024.88 614.906 3024.32 615.859 3024.02 616.391H3023.92V612.188H3022.27V623.5ZM3023.89 619.25C3023.89 617.484 3024.67 616.32 3026.1 616.328C3027.59 616.32 3028.33 617.578 3028.33 619.25C3028.33 620.953 3027.56 622.242 3026.1 622.25C3024.69 622.242 3023.89 621.031 3023.89 619.25ZM3033.36 612.188H3031.69V623.5H3033.36V612.188ZM3039.05 623.672C3040.92 623.672 3042.22 622.75 3042.6 621.375H3040.91C3040.63 621.891 3040.01 622.297 3039.06 622.297C3037.67 622.297 3036.72 621.383 3036.67 619.766H3042.7V619.172C3042.7 616.102 3040.87 614.906 3038.94 614.906C3036.57 614.906 3035.01 616.703 3035.02 619.312C3035.01 621.945 3036.55 623.672 3039.05 623.672ZM3036.68 618.516C3036.75 617.32 3037.62 616.273 3038.95 616.281C3040.23 616.273 3041.06 617.227 3041.06 618.516H3036.68ZM3047.53 623.672C3049.08 623.664 3049.69 622.727 3050 622.172H3050.13V623.5H3051.75V612.188H3050.08V616.391H3050C3049.7 615.859 3049.13 614.906 3047.55 614.906C3045.51 614.906 3043.99 616.516 3043.99 619.281C3043.99 622.016 3045.49 623.664 3047.53 623.672ZM3045.69 619.25C3045.68 617.578 3046.43 616.32 3047.91 616.328C3049.35 616.32 3050.13 617.484 3050.13 619.25C3050.13 621.031 3049.33 622.242 3047.91 622.25C3046.45 622.242 3045.68 620.953 3045.69 619.25Z" fill="black"/>
<mask id="path-37-inside-5_3_5" fill="white">
<path d="M1820.84 652.5H3173.84V1007.5H1820.84V652.5Z"/>
</mask>
<path d="M3173.84 1007.5V1006.5H1820.84V1007.5V1008.5H3173.84V1007.5Z" fill="#DEE4E8" mask="url(#path-37-inside-5_3_5)"/>
<mask id="path-39-inside-6_3_5" fill="white">
<path d="M1820.84 652.5H2020.84V1006.5H1820.84V652.5Z"/>
</mask>
<path d="M1820.84 652.5H2020.84V1006.5H1820.84V652.5Z" fill="#F9FAFB"/>
<path d="M2020.84 652.5H2019.84V1006.5H2020.84H2021.84V652.5H2020.84Z" fill="#DEE4E8" mask="url(#path-39-inside-6_3_5)"/>
<path d="M1859.26 824.188H1857.91V835.5H1859.26V824.188ZM1860.83 833.094C1860.83 834.75 1862.11 835.695 1863.72 835.703C1865.2 835.695 1865.97 834.914 1866.25 834.344H1866.32V835.5H1867.64V829.906C1867.65 827.234 1865.57 826.906 1864.46 826.906C1862.58 826.906 1861.25 827.852 1861.08 829.219H1862.49C1862.68 828.57 1863.32 828.078 1864.39 828.078C1865.68 828.078 1866.32 828.703 1866.32 829.781V830.469C1865.93 830.477 1864.57 830.555 1864.02 830.594C1862.55 830.703 1860.83 831.148 1860.83 833.094ZM1862.18 833.156C1862.18 832.227 1862.96 831.797 1864.18 831.719C1864.58 831.695 1865.92 831.594 1866.32 831.57V832.422C1866.32 833.492 1865.47 834.508 1863.96 834.5C1862.93 834.508 1862.18 834.055 1862.18 833.156ZM1869.64 835.5H1870.98V830.156C1870.98 829.016 1871.89 828.172 1873.11 828.172C1873.46 828.172 1873.82 828.242 1873.92 828.266V826.906C1873.77 826.891 1873.42 826.883 1873.22 826.875C1872.22 826.883 1871.34 827.453 1871.03 828.312H1870.94V827.016H1869.64V835.5ZM1878.23 838.859C1880.3 838.859 1881.91 837.922 1881.92 835.734V827.016H1880.61V828.359H1880.5C1880.19 827.906 1879.66 826.906 1878.01 826.906C1875.88 826.906 1874.39 828.531 1874.39 831.141C1874.39 833.812 1875.93 835.367 1878 835.375C1879.64 835.367 1880.18 834.406 1880.47 833.938H1880.57V835.656C1880.57 837.055 1879.68 837.688 1878.23 837.688C1877.03 837.688 1876.22 837.258 1876.04 836.391H1874.64C1874.79 837.961 1876.18 838.859 1878.23 838.859ZM1875.75 831.188C1875.75 829.477 1876.55 828.109 1878.18 828.109C1879.76 828.109 1880.6 829.367 1880.61 831.188C1880.6 833.055 1879.74 834.172 1878.18 834.172C1876.57 834.172 1875.75 832.945 1875.75 831.188ZM1887.46 835.672C1889.21 835.68 1890.47 834.805 1890.87 833.516H1889.43C1889.12 834.039 1888.48 834.484 1887.46 834.484C1885.95 834.484 1884.91 833.5 1884.84 831.703H1890.99V831.141C1891 828 1889.12 826.906 1887.34 826.906C1885.03 826.906 1883.49 828.719 1883.49 831.328C1883.49 833.93 1885.01 835.68 1887.46 835.672ZM1884.84 830.562C1884.94 829.25 1885.87 828.094 1887.34 828.094C1888.74 828.094 1889.63 829.148 1889.63 830.562H1884.84Z" fill="#3B4044"/>
<mask id="path-42-inside-7_3_5" fill="white">
<path d="M2020.84 652.5H2220.84V829.5H2020.84V652.5Z"/>
</mask>
<path d="M2020.84 652.5H2220.84V829.5H2020.84V652.5Z" fill="#F9FAFB"/>
<path d="M2220.84 829.5V830.5H2221.84V829.5H2220.84ZM2220.84 652.5H2219.84V829.5H2220.84H2221.84V652.5H2220.84ZM2220.84 829.5V828.5H2020.84V829.5V830.5H2220.84V829.5Z" fill="#DEE4E8" mask="url(#path-42-inside-7_3_5)"/>
<path d="M2058.09 735.688V747H2059.41V738.453H2059.51L2063.02 747H2064.27L2067.79 738.453H2067.9V747H2069.23V735.688H2067.54L2063.73 745H2063.59L2059.77 735.688H2058.09Z" fill="#3B4044"/>
<mask id="path-45-inside-8_3_5" fill="white">
<path d="M2020.84 829.5H2220.84V1006.5H2020.84V829.5Z"/>
</mask>
<path d="M2020.84 829.5H2220.84V1006.5H2020.84V829.5Z" fill="#F9FAFB"/>
<path d="M2220.84 1006.5V1007.5H2221.84V1006.5H2220.84ZM2220.84 829.5H2219.84V1006.5H2220.84H2221.84V829.5H2220.84ZM2220.84 1006.5V1005.5H2020.84V1006.5V1007.5H2220.84V1006.5Z" fill="#DEE4E8" mask="url(#path-45-inside-8_3_5)"/>
<path d="M2064.26 915.531H2065.63C2065.58 913.812 2064 912.531 2061.8 912.531C2059.61 912.531 2057.91 913.789 2057.91 915.703C2057.91 917.234 2059.02 918.141 2060.79 918.656L2062.18 919.031C2063.37 919.367 2064.41 919.789 2064.41 920.891C2064.41 922.125 2063.24 922.93 2061.68 922.922C2060.34 922.93 2059.16 922.328 2059.04 921.062H2057.6C2057.73 922.938 2059.24 924.195 2061.68 924.203C2064.3 924.195 2065.79 922.766 2065.79 920.922C2065.79 918.805 2063.8 918.109 2062.59 917.797L2061.46 917.484C2060.6 917.273 2059.28 916.828 2059.27 915.641C2059.28 914.562 2060.26 913.781 2061.76 913.781C2063.11 913.781 2064.14 914.422 2064.26 915.531ZM2067.64 924H2068.94V922.703H2069.1C2069.39 923.172 2069.94 924.18 2071.57 924.172C2073.68 924.18 2075.17 922.477 2075.18 919.781C2075.17 917.094 2073.68 915.406 2071.55 915.406C2069.89 915.406 2069.39 916.406 2069.1 916.859H2068.99V912.688H2067.64V924ZM2068.96 919.75C2068.96 917.867 2069.8 916.609 2071.36 916.609C2073 916.609 2073.81 917.977 2073.82 919.75C2073.81 921.555 2072.98 922.969 2071.36 922.969C2069.82 922.969 2068.96 921.656 2068.96 919.75Z" fill="#3B4044"/>
<rect width="953" height="354" transform="translate(2220.84 652.5)" fill="white"/>
<mask id="path-48-inside-9_3_5" fill="white">
<path d="M1820.84 1007.5H3173.84V1362.5H1820.84V1007.5Z"/>
</mask>
<path d="M3173.84 1362.5V1361.5H1820.84V1362.5V1363.5H3173.84V1362.5Z" fill="#DEE4E8" mask="url(#path-48-inside-9_3_5)"/>
<mask id="path-50-inside-10_3_5" fill="white">
<path d="M1820.84 1007.5H2020.84V1361.5H1820.84V1007.5Z"/>
</mask>
<path d="M1820.84 1007.5H2020.84V1361.5H1820.84V1007.5Z" fill="#F9FAFB"/>
<path d="M2020.84 1007.5H2019.84V1361.5H2020.84H2021.84V1007.5H2020.84Z" fill="#DEE4E8" mask="url(#path-50-inside-10_3_5)"/>
<path d="M1857.91 1190.5H1859.26V1185.2C1859.26 1183.97 1860.15 1183.11 1861.16 1183.11C1862.14 1183.11 1862.83 1183.75 1862.82 1184.7V1190.5H1864.18V1184.98C1864.19 1183.91 1864.86 1183.11 1866.04 1183.11C1866.97 1183.11 1867.75 1183.59 1867.76 1184.84V1190.5H1869.1V1184.83C1869.1 1182.83 1868.02 1181.91 1866.51 1181.91C1865.29 1181.91 1864.39 1182.47 1863.96 1183.34H1863.87C1863.47 1182.44 1862.71 1181.91 1861.6 1181.91C1860.49 1181.91 1859.67 1182.44 1859.32 1183.34H1859.21V1182.02H1857.91V1190.5ZM1874.66 1190.67C1876.41 1190.68 1877.67 1189.8 1878.07 1188.52H1876.63C1876.32 1189.04 1875.68 1189.48 1874.66 1189.48C1873.15 1189.48 1872.11 1188.5 1872.04 1186.7H1878.19V1186.14C1878.2 1183 1876.32 1181.91 1874.54 1181.91C1872.23 1181.91 1870.69 1183.72 1870.69 1186.33C1870.69 1188.93 1872.21 1190.68 1874.66 1190.67ZM1872.04 1185.56C1872.14 1184.25 1873.07 1183.09 1874.54 1183.09C1875.93 1183.09 1876.82 1184.15 1876.83 1185.56H1872.04ZM1882.98 1190.67C1884.6 1190.68 1885.16 1189.67 1885.45 1189.2H1885.59V1190.5H1886.91V1179.19H1885.55V1183.36H1885.45C1885.16 1182.91 1884.65 1181.91 1883 1181.91C1880.87 1181.91 1879.38 1183.59 1879.38 1186.28C1879.38 1188.98 1880.87 1190.68 1882.98 1190.67ZM1880.73 1186.25C1880.73 1184.48 1881.54 1183.11 1883.17 1183.11C1884.75 1183.11 1885.59 1184.37 1885.59 1186.25C1885.59 1188.16 1884.73 1189.47 1883.17 1189.47C1881.56 1189.47 1880.73 1188.05 1880.73 1186.25ZM1889.07 1190.5H1890.42V1182.02H1889.07V1190.5ZM1888.81 1179.72C1888.8 1180.21 1889.23 1180.61 1889.75 1180.61C1890.26 1180.61 1890.69 1180.21 1890.7 1179.72C1890.69 1179.22 1890.26 1178.82 1889.75 1178.83C1889.23 1178.82 1888.8 1179.22 1888.81 1179.72ZM1897.76 1187.02C1897.75 1188.6 1896.55 1189.32 1895.59 1189.31C1894.5 1189.32 1893.74 1188.53 1893.74 1187.31V1182.02H1892.4V1187.41C1892.39 1189.56 1893.54 1190.61 1895.15 1190.61C1896.42 1190.61 1897.27 1189.92 1897.66 1189.06H1897.76V1190.5H1899.09V1182.02H1897.76V1187.02ZM1901.08 1190.5H1902.43V1185.2C1902.43 1183.97 1903.32 1183.11 1904.33 1183.11C1905.31 1183.11 1906 1183.75 1905.99 1184.7V1190.5H1907.35V1184.98C1907.36 1183.91 1908.03 1183.11 1909.21 1183.11C1910.14 1183.11 1910.92 1183.59 1910.93 1184.84V1190.5H1912.27V1184.83C1912.27 1182.83 1911.18 1181.91 1909.68 1181.91C1908.46 1181.91 1907.56 1182.47 1907.13 1183.34H1907.04C1906.64 1182.44 1905.88 1181.91 1904.77 1181.91C1903.66 1181.91 1902.84 1182.44 1902.49 1183.34H1902.38V1182.02H1901.08V1190.5Z" fill="#3B4044"/>
<mask id="path-53-inside-11_3_5" fill="white">
<path d="M2020.84 1007.5H2220.84V1184.5H2020.84V1007.5Z"/>
</mask>
<path d="M2020.84 1007.5H2220.84V1184.5H2020.84V1007.5Z" fill="#F9FAFB"/>
<path d="M2220.84 1184.5V1185.5H2221.84V1184.5H2220.84ZM2220.84 1007.5H2219.84V1184.5H2220.84H2221.84V1007.5H2220.84ZM2220.84 1184.5V1183.5H2020.84V1184.5V1185.5H2220.84V1184.5Z" fill="#DEE4E8" mask="url(#path-53-inside-11_3_5)"/>
<path d="M2058.09 1090.69V1102H2059.41V1093.45H2059.51L2063.02 1102H2064.27L2067.79 1093.45H2067.9V1102H2069.23V1090.69H2067.54L2063.73 1100H2063.59L2059.77 1090.69H2058.09Z" fill="#3B4044"/>
<mask id="path-56-inside-12_3_5" fill="white">
<path d="M2020.84 1184.5H2220.84V1361.5H2020.84V1184.5Z"/>
</mask>
<path d="M2020.84 1184.5H2220.84V1361.5H2020.84V1184.5Z" fill="#F9FAFB"/>
<path d="M2220.84 1361.5V1362.5H2221.84V1361.5H2220.84ZM2220.84 1184.5H2219.84V1361.5H2220.84H2221.84V1184.5H2220.84ZM2220.84 1361.5V1360.5H2020.84V1361.5V1362.5H2220.84V1361.5Z" fill="#DEE4E8" mask="url(#path-56-inside-12_3_5)"/>
<path d="M2064.26 1270.53H2065.63C2065.58 1268.81 2064 1267.53 2061.8 1267.53C2059.61 1267.53 2057.91 1268.79 2057.91 1270.7C2057.91 1272.23 2059.02 1273.14 2060.79 1273.66L2062.18 1274.03C2063.37 1274.37 2064.41 1274.79 2064.41 1275.89C2064.41 1277.12 2063.24 1277.93 2061.68 1277.92C2060.34 1277.93 2059.16 1277.33 2059.04 1276.06H2057.6C2057.73 1277.94 2059.24 1279.2 2061.68 1279.2C2064.3 1279.2 2065.79 1277.77 2065.79 1275.92C2065.79 1273.8 2063.8 1273.11 2062.59 1272.8L2061.46 1272.48C2060.6 1272.27 2059.28 1271.83 2059.27 1270.64C2059.28 1269.56 2060.26 1268.78 2061.76 1268.78C2063.11 1268.78 2064.14 1269.42 2064.26 1270.53ZM2067.64 1279H2068.94V1277.7H2069.1C2069.39 1278.17 2069.94 1279.18 2071.57 1279.17C2073.68 1279.18 2075.17 1277.48 2075.18 1274.78C2075.17 1272.09 2073.68 1270.41 2071.55 1270.41C2069.89 1270.41 2069.39 1271.41 2069.1 1271.86H2068.99V1267.69H2067.64V1279ZM2068.96 1274.75C2068.96 1272.87 2069.8 1271.61 2071.36 1271.61C2073 1271.61 2073.81 1272.98 2073.82 1274.75C2073.81 1276.55 2072.98 1277.97 2071.36 1277.97C2069.82 1277.97 2068.96 1276.66 2068.96 1274.75Z" fill="#3B4044"/>
<rect width="953" height="354" transform="translate(2220.84 1007.5)" fill="white"/>
</g>
<rect x="1821.34" y="583" width="1352" height="779" rx="19.5" stroke="#DEE4E8"/>
<rect x="2221.34" y="653" width="952" height="708" rx="4.5" stroke="#9747FF" stroke-dasharray="10 5"/>
<g opacity="0.4">
<rect x="2350.84" y="1264.5" width="18" height="18" rx="3" stroke="#A8B3BD" stroke-width="2"/>
</g>
<path d="M2385.74 1268.23V1273.42H2382.4V1276.08C2383.86 1276.06 2385.24 1276 2386.84 1275.7L2386.98 1277.12C2385.09 1277.47 2383.49 1277.52 2381.71 1277.52H2380.73V1272.05H2384.07V1269.62H2380.71V1268.23H2385.74ZM2392.46 1266.77V1280.89H2390.8V1266.77H2392.46ZM2389.55 1267.06V1280.17H2387.91V1273.09H2386.37V1271.67H2387.91V1267.06H2389.55ZM2405.88 1266.77V1280.91H2404.13V1266.77H2405.88ZM2398.27 1267.8C2400.4 1267.8 2401.95 1269.73 2401.96 1272.78C2401.95 1275.86 2400.4 1277.78 2398.27 1277.78C2396.13 1277.78 2394.59 1275.86 2394.59 1272.78C2394.59 1269.73 2396.13 1267.8 2398.27 1267.8ZM2398.27 1269.36C2397.07 1269.36 2396.26 1270.62 2396.26 1272.78C2396.26 1274.95 2397.07 1276.22 2398.27 1276.22C2399.46 1276.22 2400.27 1274.95 2400.27 1272.78C2400.27 1270.62 2399.46 1269.36 2398.27 1269.36ZM2411.35 1267.02V1268.12H2417.45V1267.02H2419.16V1271.73H2409.63V1267.02H2411.35ZM2411.35 1270.42H2417.45V1269.39H2411.35V1270.42ZM2420.84 1272.64V1274H2407.96V1272.64H2420.84ZM2419.23 1275V1278.41H2411.2V1279.44H2419.62V1280.77H2409.49V1277.19H2417.52V1276.28H2409.48V1275H2419.23Z" fill="#181A1B"/>
<g opacity="0.4">
<rect x="2350.84" y="908.5" width="18" height="18" rx="3" stroke="#A8B3BD" stroke-width="2"/>
</g>
<path d="M2386.48 911.826V917.662H2382.72V920.65C2384.36 920.633 2385.92 920.562 2387.71 920.229L2387.87 921.828C2385.74 922.215 2383.95 922.268 2381.95 922.268H2380.84V916.115H2384.6V913.391H2380.82V911.826H2386.48ZM2394.04 910.174V926.064H2392.18V910.174H2394.04ZM2390.77 910.508V925.256H2388.92V917.293H2387.18V915.693H2388.92V910.508H2390.77ZM2409.14 910.174V926.082H2407.17V910.174H2409.14ZM2400.58 911.334C2402.97 911.334 2404.71 913.514 2404.73 916.941C2404.71 920.404 2402.97 922.566 2400.58 922.566C2398.17 922.566 2396.43 920.404 2396.43 916.941C2396.43 913.514 2398.17 911.334 2400.58 911.334ZM2400.58 913.092C2399.22 913.092 2398.31 914.516 2398.31 916.941C2398.31 919.385 2399.22 920.809 2400.58 920.809C2401.91 920.809 2402.83 919.385 2402.83 916.941C2402.83 914.516 2401.91 913.092 2400.58 913.092ZM2415.29 910.455V911.703H2422.15V910.455H2424.08V915.764H2413.36V910.455H2415.29ZM2415.29 914.287H2422.15V913.127H2415.29V914.287ZM2425.96 916.783V918.312H2411.48V916.783H2425.96ZM2424.15 919.438V923.27H2415.12V924.43H2424.59V925.924H2413.2V921.898H2422.23V920.879H2413.18V919.438H2424.15Z" fill="#181A1B"/>
<g opacity="0.4">
<rect x="2350.84" y="1087.5" width="18" height="18" rx="3" stroke="#A8B3BD" stroke-width="2"/>
</g>
<path d="M2385.77 1091.33V1096.31H2382.23V1099.19C2383.75 1099.18 2385.2 1099.12 2386.93 1098.81L2387.05 1100.03C2385.12 1100.38 2383.52 1100.42 2381.76 1100.44H2380.79V1095.12H2384.35V1092.53H2380.77V1091.33H2385.77ZM2392.37 1089.83V1103.83H2390.95V1089.83H2392.37ZM2389.49 1090.14V1103.11H2388.09V1095.98H2386.43V1094.78H2388.09V1090.14H2389.49ZM2405.77 1089.83V1103.86H2404.29V1089.83H2405.77ZM2398.29 1090.88C2400.37 1090.88 2401.9 1092.78 2401.9 1095.78C2401.9 1098.8 2400.37 1100.7 2398.29 1100.7C2396.18 1100.7 2394.66 1098.8 2394.66 1095.78C2394.66 1092.78 2396.18 1090.88 2398.29 1090.88ZM2398.29 1092.2C2396.99 1092.2 2396.1 1093.58 2396.1 1095.78C2396.1 1098 2396.99 1099.38 2398.29 1099.38C2399.57 1099.38 2400.46 1098 2400.46 1095.78C2400.46 1093.58 2399.57 1092.2 2398.29 1092.2ZM2411.15 1090.06V1091.3H2417.63V1090.06H2419.12V1094.72H2409.68V1090.06H2411.15ZM2411.15 1093.59H2417.63V1092.39H2411.15V1093.59ZM2420.77 1095.78V1096.95H2408.01V1095.78H2420.77ZM2419.16 1098.08V1101.33H2411.01V1102.55H2419.55V1103.69H2409.55V1100.27H2417.7V1099.19H2409.54V1098.08H2419.16Z" fill="#181A1B"/>
<g opacity="0.4">
<rect x="2350.84" y="731.5" width="18" height="18" rx="3" stroke="#A8B3BD" stroke-width="2"/>
</g>
<path d="M2386.52 734.932V740.539H2382.53V743.773C2384.24 743.765 2385.87 743.703 2387.82 743.352L2387.96 744.723C2385.78 745.109 2383.98 745.162 2382 745.18H2380.91V739.203H2384.92V736.285H2380.89V734.932H2386.52ZM2393.93 733.244V748.994H2392.33V733.244H2393.93ZM2390.7 733.596V748.186H2389.12V740.17H2387.25V738.816H2389.12V733.596H2390.7ZM2409.02 733.244V749.029H2407.35V733.244H2409.02ZM2400.6 734.422C2402.93 734.422 2404.66 736.566 2404.66 739.941C2404.66 743.334 2402.93 745.479 2400.6 745.479C2398.22 745.479 2396.52 743.334 2396.52 739.941C2396.52 736.566 2398.22 734.422 2400.6 734.422ZM2400.6 735.916C2399.14 735.916 2398.13 737.463 2398.13 739.941C2398.13 742.438 2399.14 743.984 2400.6 743.984C2402.04 743.984 2403.04 742.438 2403.04 739.941C2403.04 737.463 2402.04 735.916 2400.6 735.916ZM2415.06 733.508V734.896H2422.36V733.508H2424.03V738.746H2413.41V733.508H2415.06ZM2415.06 737.48H2422.36V736.127H2415.06V737.48ZM2425.89 739.941V741.26H2411.53V739.941H2425.89ZM2424.08 742.525V746.182H2414.9V747.553H2424.52V748.836H2413.27V744.986H2422.43V743.773H2413.25V742.525H2424.08Z" fill="#181A1B"/>
<rect x="2666.84" y="1263.5" width="20" height="20" rx="4" fill="#013AAD"/>
<path fill-rule="evenodd" clip-rule="evenodd" d="M2681.31 1270.36C2681.57 1270.62 2681.57 1271.04 2681.31 1271.3L2675.98 1276.64C2675.72 1276.9 2675.29 1276.9 2675.03 1276.64L2672.37 1273.97C2672.11 1273.71 2672.11 1273.29 2672.37 1273.03C2672.63 1272.77 2673.05 1272.77 2673.31 1273.03L2675.51 1275.22L2680.37 1270.36C2680.63 1270.1 2681.05 1270.1 2681.31 1270.36Z" fill="white" stroke="white" stroke-linecap="round" stroke-linejoin="round"/>
<path d="M2702.74 1268.23V1273.42H2699.4V1276.08C2700.86 1276.06 2702.24 1276 2703.84 1275.7L2703.98 1277.12C2702.09 1277.47 2700.49 1277.52 2698.71 1277.52H2697.73V1272.05H2701.07V1269.62H2697.71V1268.23H2702.74ZM2709.46 1266.77V1280.89H2707.8V1266.77H2709.46ZM2706.55 1267.06V1280.17H2704.91V1273.09H2703.37V1271.67H2704.91V1267.06H2706.55ZM2722.88 1266.77V1280.91H2721.13V1266.77H2722.88ZM2715.27 1267.8C2717.4 1267.8 2718.95 1269.73 2718.96 1272.78C2718.95 1275.86 2717.4 1277.78 2715.27 1277.78C2713.13 1277.78 2711.59 1275.86 2711.59 1272.78C2711.59 1269.73 2713.13 1267.8 2715.27 1267.8ZM2715.27 1269.36C2714.07 1269.36 2713.26 1270.62 2713.26 1272.78C2713.26 1274.95 2714.07 1276.22 2715.27 1276.22C2716.46 1276.22 2717.27 1274.95 2717.27 1272.78C2717.27 1270.62 2716.46 1269.36 2715.27 1269.36ZM2728.35 1267.02V1268.12H2734.45V1267.02H2736.16V1271.73H2726.63V1267.02H2728.35ZM2728.35 1270.42H2734.45V1269.39H2728.35V1270.42ZM2737.84 1272.64V1274H2724.96V1272.64H2737.84ZM2736.23 1275V1278.41H2728.2V1279.44H2736.62V1280.77H2726.49V1277.19H2734.52V1276.28H2726.48V1275H2736.23Z" fill="#181A1B"/>
<rect x="2666.84" y="907.5" width="20" height="20" rx="4" fill="#013AAD"/>
<path fill-rule="evenodd" clip-rule="evenodd" d="M2681.31 914.362C2681.57 914.622 2681.57 915.044 2681.31 915.305L2675.98 920.638C2675.72 920.899 2675.29 920.899 2675.03 920.638L2672.37 917.971C2672.11 917.711 2672.11 917.289 2672.37 917.029C2672.63 916.768 2673.05 916.768 2673.31 917.029L2675.51 919.224L2680.37 914.362C2680.63 914.102 2681.05 914.102 2681.31 914.362Z" fill="white" stroke="white" stroke-linecap="round" stroke-linejoin="round"/>
<path d="M2703.48 911.826V917.662H2699.72V920.65C2701.36 920.633 2702.92 920.562 2704.71 920.229L2704.87 921.828C2702.74 922.215 2700.95 922.268 2698.95 922.268H2697.84V916.115H2701.6V913.391H2697.82V911.826H2703.48ZM2711.04 910.174V926.064H2709.18V910.174H2711.04ZM2707.77 910.508V925.256H2705.92V917.293H2704.18V915.693H2705.92V910.508H2707.77ZM2726.14 910.174V926.082H2724.17V910.174H2726.14ZM2717.58 911.334C2719.97 911.334 2721.71 913.514 2721.73 916.941C2721.71 920.404 2719.97 922.566 2717.58 922.566C2715.17 922.566 2713.43 920.404 2713.43 916.941C2713.43 913.514 2715.17 911.334 2717.58 911.334ZM2717.58 913.092C2716.22 913.092 2715.31 914.516 2715.31 916.941C2715.31 919.385 2716.22 920.809 2717.58 920.809C2718.91 920.809 2719.83 919.385 2719.83 916.941C2719.83 914.516 2718.91 913.092 2717.58 913.092ZM2732.29 910.455V911.703H2739.15V910.455H2741.08V915.764H2730.36V910.455H2732.29ZM2732.29 914.287H2739.15V913.127H2732.29V914.287ZM2742.96 916.783V918.312H2728.48V916.783H2742.96ZM2741.15 919.438V923.27H2732.12V924.43H2741.59V925.924H2730.2V921.898H2739.23V920.879H2730.18V919.438H2741.15Z" fill="#181A1B"/>
<rect x="2666.84" y="1086.5" width="20" height="20" rx="4" fill="#013AAD"/>
<path fill-rule="evenodd" clip-rule="evenodd" d="M2681.31 1093.36C2681.57 1093.62 2681.57 1094.04 2681.31 1094.3L2675.98 1099.64C2675.72 1099.9 2675.29 1099.9 2675.03 1099.64L2672.37 1096.97C2672.11 1096.71 2672.11 1096.29 2672.37 1096.03C2672.63 1095.77 2673.05 1095.77 2673.31 1096.03L2675.51 1098.22L2680.37 1093.36C2680.63 1093.1 2681.05 1093.1 2681.31 1093.36Z" fill="white" stroke="white" stroke-linecap="round" stroke-linejoin="round"/>
<path d="M2702.77 1091.33V1096.31H2699.23V1099.19C2700.75 1099.18 2702.2 1099.12 2703.93 1098.81L2704.05 1100.03C2702.12 1100.38 2700.52 1100.42 2698.76 1100.44H2697.79V1095.12H2701.35V1092.53H2697.77V1091.33H2702.77ZM2709.37 1089.83V1103.83H2707.95V1089.83H2709.37ZM2706.49 1090.14V1103.11H2705.09V1095.98H2703.43V1094.78H2705.09V1090.14H2706.49ZM2722.77 1089.83V1103.86H2721.29V1089.83H2722.77ZM2715.29 1090.88C2717.37 1090.88 2718.9 1092.78 2718.9 1095.78C2718.9 1098.8 2717.37 1100.7 2715.29 1100.7C2713.18 1100.7 2711.66 1098.8 2711.66 1095.78C2711.66 1092.78 2713.18 1090.88 2715.29 1090.88ZM2715.29 1092.2C2713.99 1092.2 2713.1 1093.58 2713.1 1095.78C2713.1 1098 2713.99 1099.38 2715.29 1099.38C2716.57 1099.38 2717.46 1098 2717.46 1095.78C2717.46 1093.58 2716.57 1092.2 2715.29 1092.2ZM2728.15 1090.06V1091.3H2734.63V1090.06H2736.12V1094.72H2726.68V1090.06H2728.15ZM2728.15 1093.59H2734.63V1092.39H2728.15V1093.59ZM2737.77 1095.78V1096.95H2725.01V1095.78H2737.77ZM2736.16 1098.08V1101.33H2728.01V1102.55H2736.55V1103.69H2726.55V1100.27H2734.7V1099.19H2726.54V1098.08H2736.16Z" fill="#181A1B"/>
<rect x="2666.84" y="730.5" width="20" height="20" rx="4" fill="#013AAD"/>
<path fill-rule="evenodd" clip-rule="evenodd" d="M2681.31 737.362C2681.57 737.622 2681.57 738.044 2681.31 738.305L2675.98 743.638C2675.72 743.899 2675.29 743.899 2675.03 743.638L2672.37 740.971C2672.11 740.711 2672.11 740.289 2672.37 740.029C2672.63 739.768 2673.05 739.768 2673.31 740.029L2675.51 742.224L2680.37 737.362C2680.63 737.102 2681.05 737.102 2681.31 737.362Z" fill="white" stroke="white" stroke-linecap="round" stroke-linejoin="round"/>
<path d="M2703.52 734.932V740.539H2699.53V743.773C2701.24 743.765 2702.87 743.703 2704.82 743.352L2704.96 744.723C2702.78 745.109 2700.98 745.162 2699 745.18H2697.91V739.203H2701.92V736.285H2697.89V734.932H2703.52ZM2710.93 733.244V748.994H2709.33V733.244H2710.93ZM2707.7 733.596V748.186H2706.12V740.17H2704.25V738.816H2706.12V733.596H2707.7ZM2726.02 733.244V749.029H2724.35V733.244H2726.02ZM2717.6 734.422C2719.93 734.422 2721.66 736.566 2721.66 739.941C2721.66 743.334 2719.93 745.479 2717.6 745.479C2715.22 745.479 2713.52 743.334 2713.52 739.941C2713.52 736.566 2715.22 734.422 2717.6 734.422ZM2717.6 735.916C2716.14 735.916 2715.13 737.463 2715.13 739.941C2715.13 742.438 2716.14 743.984 2717.6 743.984C2719.04 743.984 2720.04 742.438 2720.04 739.941C2720.04 737.463 2719.04 735.916 2717.6 735.916ZM2732.06 733.508V734.896H2739.36V733.508H2741.03V738.746H2730.41V733.508H2732.06ZM2732.06 737.48H2739.36V736.127H2732.06V737.48ZM2742.89 739.941V741.26H2728.53V739.941H2742.89ZM2741.08 742.525V746.182H2731.9V747.553H2741.52V748.836H2730.27V744.986H2739.43V743.773H2730.25V742.525H2741.08Z" fill="#181A1B"/>
<g opacity="0.4">
<rect x="2985.84" y="1264.5" width="18" height="18" rx="3" stroke="#A8B3BD" stroke-width="2"/>
</g>
<g opacity="0.4">
<path d="M3020.74 1268.23H3015.71V1269.62H3019.07V1272.05H3015.73V1277.52H3016.71C3018.48 1277.51 3020.08 1277.48 3021.98 1277.12L3021.84 1275.7C3020.23 1275.99 3018.85 1276.05 3017.4 1276.07V1273.42H3020.74V1268.23ZM3021.37 1273.09H3022.91V1280.17H3024.55V1267.06H3022.91V1271.67H3021.37V1273.09ZM3025.8 1280.89H3027.46V1266.77H3025.8V1280.89ZM3040.88 1266.77H3039.13V1280.91H3040.88V1266.77ZM3029.59 1272.78C3029.58 1275.85 3031.13 1277.78 3033.27 1277.78C3035.39 1277.78 3036.95 1275.85 3036.96 1272.78C3036.95 1269.73 3035.39 1267.8 3033.27 1267.8C3031.13 1267.8 3029.58 1269.73 3029.59 1272.78ZM3031.26 1272.78C3031.26 1270.62 3032.08 1269.36 3033.27 1269.36C3034.46 1269.36 3035.27 1270.62 3035.27 1272.78C3035.27 1274.95 3034.46 1276.21 3033.27 1276.22C3032.08 1276.21 3031.26 1274.95 3031.26 1272.78ZM3046.35 1267.02H3044.63V1271.73H3054.16V1267.02H3052.45V1268.12H3046.35V1267.02ZM3042.96 1274H3055.84V1272.64H3042.96V1274ZM3044.48 1276.28H3052.52V1277.19H3044.49V1280.77H3054.62V1279.44H3046.2V1278.41H3054.23V1275H3044.48V1276.28ZM3046.35 1270.42V1269.39H3052.45V1270.42H3046.35Z" fill="#181A1B"/>
</g>
<g opacity="0.4">
<rect x="2985.84" y="908.5" width="18" height="18" rx="3" stroke="#A8B3BD" stroke-width="2"/>
</g>
<g opacity="0.4">
<path d="M3021.48 911.826H3015.82V913.391H3019.6V916.115H3015.84V922.268H3016.95C3018.94 922.259 3020.73 922.224 3022.87 921.828L3022.71 920.229C3020.91 920.554 3019.35 920.624 3017.72 920.642V917.662H3021.48V911.826ZM3022.18 917.293H3023.92V925.256H3025.77V910.508H3023.92V915.693H3022.18V917.293ZM3027.18 926.064H3029.04V910.174H3027.18V926.064ZM3044.14 910.174H3042.17V926.082H3044.14V910.174ZM3031.43 916.941C3031.42 920.396 3033.17 922.566 3035.58 922.566C3037.96 922.566 3039.72 920.396 3039.73 916.941C3039.72 913.514 3037.96 911.334 3035.58 911.334C3033.17 911.334 3031.42 913.514 3031.43 916.941ZM3033.31 916.941C3033.31 914.516 3034.23 913.092 3035.58 913.092C3036.91 913.092 3037.83 914.516 3037.83 916.941C3037.83 919.385 3036.91 920.8 3035.58 920.809C3034.23 920.8 3033.31 919.385 3033.31 916.941ZM3050.29 910.455H3048.36V915.764H3059.08V910.455H3057.15V911.703H3050.29V910.455ZM3046.48 918.312H3060.96V916.783H3046.48V918.312ZM3048.18 920.879H3057.23V921.898H3048.2V925.924H3059.59V924.43H3050.12V923.27H3059.15V919.438H3048.18V920.879ZM3050.29 914.287V913.127H3057.15V914.287H3050.29Z" fill="#181A1B"/>
</g>
<g opacity="0.4">
<rect x="2985.84" y="1087.5" width="18" height="18" rx="3" stroke="#A8B3BD" stroke-width="2"/>
</g>
<g opacity="0.4">
<path d="M3020.77 1091.33H3015.77V1092.53H3019.35V1095.12H3015.79V1100.44H3016.76C3018.52 1100.42 3020.11 1100.38 3022.05 1100.03L3021.93 1098.81C3020.2 1099.12 3018.75 1099.18 3017.23 1099.19V1096.31H3020.77V1091.33ZM3021.43 1095.98H3023.09V1103.11H3024.49V1090.14H3023.09V1094.78H3021.43V1095.98ZM3025.95 1103.83H3027.37V1089.83H3025.95V1103.83ZM3040.77 1089.83H3039.29V1103.86H3040.77V1089.83ZM3029.66 1095.78C3029.66 1098.8 3031.17 1100.71 3033.29 1100.7C3035.37 1100.71 3036.9 1098.8 3036.9 1095.78C3036.9 1092.79 3035.37 1090.88 3033.29 1090.88C3031.17 1090.88 3029.66 1092.79 3029.66 1095.78ZM3031.1 1095.78C3031.09 1093.59 3031.98 1092.21 3033.29 1092.2C3034.57 1092.21 3035.46 1093.59 3035.46 1095.78C3035.46 1098.01 3034.57 1099.38 3033.29 1099.38C3031.98 1099.38 3031.09 1098.01 3031.1 1095.78ZM3046.15 1090.06H3044.68V1094.72H3054.12V1090.06H3052.63V1091.3H3046.15V1090.06ZM3043.01 1096.95H3055.77V1095.78H3043.01V1096.95ZM3044.54 1099.19H3052.7V1100.27H3044.55V1103.69H3054.55V1102.55H3046.01V1101.33H3054.16V1098.08H3044.54V1099.19ZM3046.15 1093.59V1092.39H3052.63V1093.59H3046.15Z" fill="#181A1B"/>
</g>
<g opacity="0.4">
<rect x="2985.84" y="731.5" width="18" height="18" rx="3" stroke="#A8B3BD" stroke-width="2"/>
</g>
<g opacity="0.4">
<path d="M3021.52 734.932H3015.89V736.285H3019.92V739.203H3015.91V745.18H3017C3018.98 745.162 3020.77 745.118 3022.96 744.723L3022.82 743.352C3020.87 743.694 3019.24 743.765 3017.53 743.773V740.539H3021.52V734.932ZM3022.25 740.17H3024.12V748.186H3025.7V733.596H3024.12V738.816H3022.25V740.17ZM3027.33 748.994H3028.93V733.244H3027.33V748.994ZM3044.02 733.244H3042.35V749.029H3044.02V733.244ZM3031.52 739.941C3031.52 743.343 3033.21 745.487 3035.6 745.479C3037.93 745.487 3039.66 743.343 3039.66 739.941C3039.66 736.575 3037.93 734.431 3035.6 734.422C3033.21 734.431 3031.52 736.575 3031.52 739.941ZM3033.13 739.941C3033.13 737.472 3034.13 735.925 3035.6 735.916C3037.04 735.925 3038.04 737.472 3038.04 739.941C3038.04 742.446 3037.04 743.984 3035.6 743.984C3034.13 743.984 3033.13 742.446 3033.13 739.941ZM3050.06 733.508H3048.41V738.746H3059.03V733.508H3057.36V734.896H3050.06V733.508ZM3046.53 741.26H3060.89V739.941H3046.53V741.26ZM3048.25 743.773H3057.43V744.986H3048.27V748.836H3059.52V747.553H3049.9V746.182H3059.08V742.525H3048.25V743.773ZM3050.06 737.48V736.127H3057.36V737.48H3050.06Z" fill="#181A1B"/>
</g>
<rect x="40" y="4" width="62.25" height="30" rx="3" fill="#444444"/>
<rect x="40.5" y="4.5" width="61.25" height="29" rx="2.5" stroke="white" stroke-opacity="0.0980392"/>
<path d="M49.2813 22.125C48.7188 22.125 48.2344 21.9922 47.8281 21.7266C47.4219 21.4609 47.1094 21.0951 46.8906 20.6289C46.6719 20.1628 46.5625 19.6302 46.5625 19.0312C46.5625 18.4219 46.6745 17.8841 46.8984 17.418C47.125 16.9492 47.4401 16.5833 47.8438 16.3203C48.25 16.0547 48.724 15.9219 49.2656 15.9219C49.6875 15.9219 50.0677 16 50.4063 16.1562C50.7448 16.3125 51.0221 16.5312 51.2383 16.8125C51.4544 17.0937 51.5885 17.4219 51.6406 17.7969H50.7188C50.6484 17.5234 50.4922 17.2812 50.25 17.0703C50.0104 16.8568 49.6875 16.75 49.2813 16.75C48.9219 16.75 48.6068 16.8437 48.3359 17.0312C48.0677 17.2161 47.8581 17.4779 47.707 17.8164C47.5586 18.1523 47.4844 18.5469 47.4844 19C47.4844 19.4635 47.5573 19.8672 47.7031 20.2109C47.8516 20.5547 48.0599 20.8216 48.3281 21.0117C48.599 21.2018 48.9167 21.2969 49.2813 21.2969C49.5208 21.2969 49.7383 21.2552 49.9336 21.1719C50.1289 21.0885 50.2943 20.9688 50.4297 20.8125C50.5651 20.6562 50.6615 20.4687 50.7188 20.25H51.6406C51.5885 20.6042 51.4596 20.9232 51.2539 21.207C51.0508 21.4883 50.7813 21.7122 50.4453 21.8789C50.112 22.043 49.724 22.125 49.2813 22.125ZM53.9102 18.3906V22H52.9883V14H53.9102V16.9375H53.9883C54.1289 16.6276 54.3398 16.3815 54.6211 16.1992C54.9049 16.0143 55.2826 15.9219 55.7539 15.9219C56.1628 15.9219 56.5208 16.0039 56.8281 16.168C57.1354 16.3294 57.3737 16.5781 57.543 16.9141C57.7148 17.2474 57.8008 17.6719 57.8008 18.1875V22H56.8789V18.25C56.8789 17.7734 56.7552 17.4049 56.5078 17.1445C56.263 16.8815 55.9232 16.75 55.4883 16.75C55.1862 16.75 54.9154 16.8138 54.6758 16.9414C54.4388 17.069 54.2513 17.2552 54.1133 17.5C53.9779 17.7448 53.9102 18.0417 53.9102 18.3906ZM62.0029 22.125C61.4248 22.125 60.9261 21.9974 60.5068 21.7422C60.0902 21.4844 59.7686 21.125 59.542 20.6641C59.318 20.2005 59.2061 19.6615 59.2061 19.0469C59.2061 18.4323 59.318 17.8906 59.542 17.4219C59.7686 16.9505 60.0837 16.5833 60.4873 16.3203C60.8936 16.0547 61.3675 15.9219 61.9092 15.9219C62.2217 15.9219 62.5303 15.974 62.835 16.0781C63.1396 16.1823 63.417 16.3516 63.667 16.5859C63.917 16.8177 64.1162 17.125 64.2646 17.5078C64.4131 17.8906 64.4873 18.362 64.4873 18.9219V19.3125H59.8623V18.5156H63.5498C63.5498 18.1771 63.4821 17.875 63.3467 17.6094C63.2139 17.3437 63.0238 17.1341 62.7764 16.9805C62.5316 16.8268 62.2425 16.75 61.9092 16.75C61.542 16.75 61.2243 16.8411 60.9561 17.0234C60.6904 17.2031 60.486 17.4375 60.3428 17.7266C60.1995 18.0156 60.1279 18.3255 60.1279 18.6562V19.1875C60.1279 19.6406 60.2061 20.0247 60.3623 20.3398C60.5212 20.6523 60.7412 20.8906 61.0225 21.0547C61.3037 21.2161 61.6305 21.2969 62.0029 21.2969C62.2451 21.2969 62.4639 21.263 62.6592 21.1953C62.8571 21.125 63.0277 21.0208 63.1709 20.8828C63.3141 20.7422 63.4248 20.5677 63.5029 20.3594L64.3936 20.6094C64.2998 20.9115 64.1423 21.1771 63.9209 21.4062C63.6995 21.6328 63.4261 21.8099 63.1006 21.9375C62.7751 22.0625 62.4092 22.125 62.0029 22.125ZM68.3271 22.125C67.7646 22.125 67.2803 21.9922 66.874 21.7266C66.4678 21.4609 66.1553 21.0951 65.9365 20.6289C65.7178 20.1628 65.6084 19.6302 65.6084 19.0312C65.6084 18.4219 65.7204 17.8841 65.9443 17.418C66.1709 16.9492 66.486 16.5833 66.8896 16.3203C67.2959 16.0547 67.7699 15.9219 68.3115 15.9219C68.7334 15.9219 69.1136 16 69.4521 16.1562C69.7907 16.3125 70.068 16.5312 70.2842 16.8125C70.5003 17.0937 70.6344 17.4219 70.6865 17.7969H69.7646C69.6943 17.5234 69.5381 17.2812 69.2959 17.0703C69.0563 16.8568 68.7334 16.75 68.3271 16.75C67.9678 16.75 67.6527 16.8437 67.3818 17.0312C67.1136 17.2161 66.904 17.4779 66.7529 17.8164C66.6045 18.1523 66.5303 18.5469 66.5303 19C66.5303 19.4635 66.6032 19.8672 66.749 20.2109C66.8975 20.5547 67.1058 20.8216 67.374 21.0117C67.6449 21.2018 67.9626 21.2969 68.3271 21.2969C68.5667 21.2969 68.7842 21.2552 68.9795 21.1719C69.1748 21.0885 69.3402 20.9688 69.4756 20.8125C69.611 20.6562 69.7074 20.4687 69.7646 20.25H70.6865C70.6344 20.6042 70.5055 20.9232 70.2998 21.207C70.0967 21.4883 69.8271 21.7122 69.4912 21.8789C69.1579 22.043 68.7699 22.125 68.3271 22.125ZM72.8936 19.8125L72.8779 18.6719H73.0654L75.6904 16H76.8311L74.0342 18.8281H73.9561L72.8936 19.8125ZM72.0342 22V14H72.9561V22H72.0342ZM75.8467 22L73.5029 19.0312L74.1592 18.3906L77.0186 22H75.8467ZM78.1426 22V14H79.0645V16.9531H79.1426C79.2103 16.849 79.304 16.7161 79.4238 16.5547C79.5462 16.3906 79.7207 16.2448 79.9473 16.1172C80.1764 15.987 80.4863 15.9219 80.877 15.9219C81.3822 15.9219 81.8275 16.0482 82.2129 16.3008C82.5983 16.5534 82.8991 16.9115 83.1152 17.375C83.3314 17.8385 83.4395 18.3854 83.4395 19.0156C83.4395 19.651 83.3314 20.2018 83.1152 20.668C82.8991 21.1315 82.5996 21.4909 82.2168 21.7461C81.834 21.9987 81.3926 22.125 80.8926 22.125C80.5072 22.125 80.1986 22.0612 79.9668 21.9336C79.735 21.8034 79.5566 21.6562 79.4316 21.4922C79.3066 21.3255 79.2103 21.1875 79.1426 21.0781H79.0332V22H78.1426ZM79.0488 19C79.0488 19.4531 79.1152 19.8529 79.248 20.1992C79.3809 20.543 79.5749 20.8125 79.8301 21.0078C80.0853 21.2005 80.3978 21.2969 80.7676 21.2969C81.153 21.2969 81.4746 21.1953 81.7324 20.9922C81.9928 20.7865 82.1882 20.5104 82.3184 20.1641C82.4512 19.8151 82.5176 19.4271 82.5176 19C82.5176 18.5781 82.4525 18.1979 82.3223 17.8594C82.1947 17.5182 82.0007 17.2487 81.7402 17.0508C81.4824 16.8503 81.1582 16.75 80.7676 16.75C80.3926 16.75 80.0775 16.8451 79.8223 17.0352C79.5671 17.2227 79.3743 17.4857 79.2441 17.8242C79.1139 18.1602 79.0488 18.5521 79.0488 19ZM87.2871 22.125C86.7454 22.125 86.2702 21.9961 85.8613 21.7383C85.4551 21.4805 85.1374 21.1198 84.9082 20.6562C84.6816 20.1927 84.5684 19.651 84.5684 19.0312C84.5684 18.4062 84.6816 17.8607 84.9082 17.3945C85.1374 16.9284 85.4551 16.5664 85.8613 16.3086C86.2702 16.0508 86.7454 15.9219 87.2871 15.9219C87.8288 15.9219 88.3027 16.0508 88.709 16.3086C89.1178 16.5664 89.4355 16.9284 89.6621 17.3945C89.8913 17.8607 90.0059 18.4062 90.0059 19.0312C90.0059 19.651 89.8913 20.1927 89.6621 20.6562C89.4355 21.1198 89.1178 21.4805 88.709 21.7383C88.3027 21.9961 87.8288 22.125 87.2871 22.125ZM87.2871 21.2969C87.6986 21.2969 88.0371 21.1914 88.3027 20.9805C88.5684 20.7695 88.765 20.4922 88.8926 20.1484C89.0202 19.8047 89.084 19.4323 89.084 19.0312C89.084 18.6302 89.0202 18.2565 88.8926 17.9102C88.765 17.5638 88.5684 17.2839 88.3027 17.0703C88.0371 16.8568 87.6986 16.75 87.2871 16.75C86.8757 16.75 86.5371 16.8568 86.2715 17.0703C86.0059 17.2839 85.8092 17.5638 85.6816 17.9102C85.554 18.2565 85.4902 18.6302 85.4902 19.0312C85.4902 19.4323 85.554 19.8047 85.6816 20.1484C85.8092 20.4922 86.0059 20.7695 86.2715 20.9805C86.5371 21.1914 86.8757 21.2969 87.2871 21.2969ZM91.8535 16L93.291 18.4531L94.7285 16H95.791L93.8535 19L95.791 22H94.7285L93.291 19.6719L91.8535 22H90.791L92.6973 19L90.791 16H91.8535Z" fill="white"/>
<defs>
<clipPath id="clip0_3_5">
<rect x="299.836" y="582.5" width="1217" height="70" rx="20" fill="white"/>
</clipPath>
<clipPath id="clip1_3_5">
<rect x="1820.84" y="582.5" width="1353" height="780" rx="20" fill="white"/>
</clipPath>
</defs>
</svg>
