<svg width="196" height="50" viewBox="0 0 196 50" fill="none" xmlns="http://www.w3.org/2000/svg">
<g clip-path="url(#clip0_369_7675)">
<path d="M73.0109 38.4915H58.7217V36.8487H73.0109V38.4915ZM60.3742 30.2582H64.8748V28.7806H66.8578V30.2582H71.3584V31.9107H69.6282C69.8323 32.3092 69.9295 32.9021 69.9101 33.3007C69.8615 35.0309 68.4131 36.3724 65.8566 36.3724C63.3001 36.3724 61.8129 35.099 61.8129 33.4368C61.8129 32.9119 61.9976 32.3578 62.3961 31.9107H60.3645V30.2582H60.3742ZM65.8663 45.5C62.8432 45.5 61.2685 44.1488 61.2685 42.2339C61.2685 40.3189 62.8432 38.9775 65.8663 38.9775C68.8894 38.9775 70.503 40.3578 70.503 42.2339C70.503 44.1099 68.9089 45.5 65.8663 45.5ZM65.8663 40.6494C64.3013 40.6494 63.2418 41.2132 63.2418 42.2436C63.2418 43.3226 64.3888 43.8377 65.8663 43.8377C67.3439 43.8377 68.52 43.3226 68.52 42.2436C68.52 41.2229 67.4313 40.6494 65.8663 40.6494ZM65.8663 34.7004C67.2953 34.7004 67.966 34.0103 67.966 33.1549C67.966 32.6883 67.8202 32.2314 67.6355 31.9107H65.7691C64.5055 31.9107 63.7667 32.6105 63.7667 33.4076C63.7667 34.2047 64.5929 34.7004 65.8663 34.7004Z" fill="#290864"/>
<path d="M88.4666 36.9459H82.2649V39.0942H85.8226C86.1531 39.0942 86.3767 39.2303 86.3767 39.5705V45.1015H84.3937V40.8147H76.2673V39.1039H80.2819V36.9557H74.1774V35.2448H83.6063C84.0146 34.3019 84.209 33.466 84.209 32.5911C84.209 31.8524 83.9562 31.5802 82.5954 31.5802H76.4423V29.8694H83.4119C85.7448 29.8694 86.2697 30.7637 86.2697 31.8329C86.2697 33.3979 86.017 34.1853 85.5796 35.2448H88.4569V36.9557L88.4666 36.9459Z" fill="#290864"/>
<path d="M91.3341 32.9994H89.8761V31.2983H93.5213V29.3347H95.5042V31.2983H99.2175V32.9994H98.0219C98.2746 33.6506 98.3621 34.3116 98.3621 34.9629C98.3621 36.664 97.2345 38.1221 95.5334 38.5303V40.3481H95.7667C97.6622 40.3481 99.1786 40.1634 100.248 39.5802V29.5097H102.231V35.3031H104.612V36.732C103.825 37.0917 102.843 37.0917 102.231 37.0917V44.9362H100.248V41.1938C98.6051 42.0006 96.5735 42.0492 94.6391 42.0492H89.6622V40.3481H93.5504V38.5498C91.7813 38.1804 90.6634 36.7029 90.6634 34.9726C90.6634 34.2533 90.8675 33.602 91.3341 33.0091V32.9994ZM94.5128 36.9459C95.7181 36.9459 96.3597 36.0224 96.4083 34.9629C96.4569 34.3116 96.3597 33.6506 96.0875 32.9994H94.2406C93.2199 32.9994 92.6075 33.9422 92.6075 34.9629C92.6075 36.0905 93.2977 36.9459 94.5128 36.9459Z" fill="#290864"/>
<path d="M112.476 32.2704H110.289L109.968 35.1962C111.183 36.4891 112.321 38.7442 112.962 40.4745L111.271 41.2035C110.834 39.8718 109.881 37.8402 109.249 36.9945C108.559 38.4235 107.791 39.901 106.994 41.3202L105.283 40.4745C106.207 38.9289 107.013 37.4222 107.635 36.0225C107.84 35.5656 107.985 35.0796 108.053 34.4964L108.287 32.2801H105.847V30.579H112.467V32.2801L112.476 32.2704ZM116.792 36.3724C116.335 36.5571 115.849 36.5571 115.383 36.5571V44.7418H113.429V29.6652H115.383V34.7783H116.792V29.5H118.736V44.9265H116.792V36.3724Z" fill="#290864"/>
<path d="M68.5006 13.0723H62.6391V6.62756H60.0243V21.2764H62.6391V14.89H68.5006V21.2764H71.1349V6.62756H68.5006V13.0723Z" fill="#290864"/>
<path d="M78.5614 11.3323C79.7667 11.3323 80.5152 12.1877 80.4763 14.3457H76.277C76.5006 11.7308 77.6185 11.3323 78.5614 11.3323ZM78.8335 19.6725C77.4727 19.6725 76.3742 19.0407 76.2187 15.9107H83.0036C83.0522 15.4344 83.0717 15.1622 83.0717 14.7636C83.0717 11.0698 81.2734 9.75757 78.7655 9.75757C76.2576 9.75757 73.6233 11.2837 73.6233 15.7746C73.6233 20.2655 75.7521 21.5 78.3864 21.5C79.9417 21.5 81.3511 21.0528 83.198 20.4404L82.7995 18.8171C81.2831 19.2934 79.8833 19.6725 78.8238 19.6725H78.8335Z" fill="#290864"/>
<path d="M92.0049 17.1258C91.723 17.5729 91.3633 18.0006 90.9939 18.4089C90.294 19.1088 89.6525 19.624 89.0401 19.624C88.2236 19.624 87.8736 19.1282 87.8736 17.4174V9.9812H85.3463V17.8646C85.3463 20.7904 86.6197 21.4903 88.3305 21.4903C89.5358 21.4903 90.8578 20.7516 92.1507 19.2643H92.1701L92.277 21.2667H94.5128V9.9812H91.9854V17.1258H92.0049Z" fill="#290864"/>
<path d="M103.426 9.75757C102.066 9.75757 100.685 10.5449 99.5188 12.0808H99.4994L99.4119 9.98114H97.147V21.2667H99.6744V14.0152C100.005 13.5194 100.374 13.0237 100.705 12.6834C101.521 11.9641 102.085 11.6239 102.707 11.6239C103.757 11.6239 103.786 12.6834 103.786 13.8791V21.2667H106.313V13.6069C106.313 11.1282 105.808 9.75757 103.436 9.75757H103.426Z" fill="#290864"/>
<path d="M115.49 17.8256C114.168 19.2448 113.361 19.76 112.7 19.76C111.825 19.76 110.989 19.1476 110.989 15.6774C110.989 12.2071 112.068 11.4684 113.341 11.4684C113.866 11.4684 114.897 11.6239 115.499 11.7405V17.8256H115.49ZM117.988 10.3894C116.695 10.0978 114.955 9.80615 113.643 9.80615C111.222 9.80615 108.355 10.4769 108.355 16.0662C108.355 20.3432 110.182 21.5388 112 21.5388C113.273 21.5388 114.216 21.0237 115.538 19.6919C115.606 20.3918 115.694 21.0237 115.694 21.8985C115.694 23.2497 115.013 24.1537 113.604 24.1537C112.194 24.1537 110.97 23.862 109.521 23.5413L108.977 25.2326C110.338 25.6312 111.874 25.9714 113.439 25.9714C116.977 25.9714 118.25 23.9204 118.25 21.6944C118.25 20.1877 118.007 19.5267 118.007 18.0686V10.3894H117.988Z" fill="#290864"/>
<path d="M130.207 9.98117H127.358C126.348 12.2169 125.142 13.8597 123.383 15.0067V5.5H120.855V21.2764H123.383V15.4635C124.938 17.7187 126.085 18.8852 127.64 21.2764H130.955C129.069 18.5061 127.679 17.291 126.124 15.3275C127.796 14.1999 128.875 12.6932 130.207 9.99089V9.98117Z" fill="#290864"/>
<path d="M138.77 17.1258C138.488 17.5729 138.129 18.0006 137.759 18.4089C137.05 19.1088 136.418 19.624 135.806 19.624C134.989 19.624 134.639 19.1282 134.639 17.4174V9.9812H132.112V17.8646C132.112 20.7904 133.385 21.4903 135.096 21.4903C136.301 21.4903 137.623 20.7516 138.916 19.2643H138.936L139.043 21.2667H141.278V9.9812H138.751V17.1258H138.77Z" fill="#290864"/>
<path d="M149.405 15.3275C151.077 14.1999 152.146 12.6932 153.487 9.99089H150.629C149.618 12.2266 148.403 13.8694 146.654 15.0164V5.5H144.126V21.2764H146.654V15.4635C148.219 17.7187 149.356 18.8852 150.911 21.2764H154.226C152.34 18.5061 150.95 17.291 149.395 15.3275H149.405Z" fill="#290864"/>
<path d="M30.005 5.91228L14.6497 21.2676L30.005 36.6229L45.3603 21.2676L30.005 5.91228Z" fill="#E4007F"/>
<path d="M11.723 6.62756H0V18.3408H11.723V6.62756Z" fill="#E4007F"/>
<path d="M11.723 24.2023H0V35.9155H11.723V24.2023Z" fill="#E4007F"/>
</g>
<defs>
<clipPath id="clip0_369_7675">
<rect width="154.236" height="40" fill="white" transform="translate(0 5.5)"/>
</clipPath>
</defs>
</svg>
